<svg xmlns="http://www.w3.org/2000/svg" width="576" height="494" viewBox="-32 16 576 494"><defs><radialGradient id="a" cx="411.34" cy="108.93" r="181.84" fx="411.34" fy="108.93" gradientUnits="userSpaceOnUse"><stop offset="0" stop-color="#95deef"/><stop offset=".2" stop-color="#00bfe0"/><stop offset="1" stop-color="#0086b9"/></radialGradient><radialGradient id="e" cx="411.34" cy="108.93" r="181.84" fx="411.34" fy="108.93" gradientUnits="userSpaceOnUse"><stop offset="0" stop-color="#b1ffbc"/><stop offset=".2" stop-color="#2aff67"/><stop offset="1" stop-color="#00bf57"/></radialGradient><clipPath id="b"><path d="M479.5 165c0 71.797-58.203 130-130 130s-130-58.203-130-130 58.203-130 130-130 130 58.203 130 130"/></clipPath><clipPath id="d"><path d="m324.84 207.84-13.87-10.4-16.03-17.33 7.37-10.4 15.6 10.4 1.73-13.86 17.33-17.33 22.52-8.66-20.79-22.53-12.13 19.06-12.13-19.06 19.06-13.86-7.94-13-12.85 4.33-29.46-8.66-24.26-13.86-17.33 8.66-5.2 27.73h15.6l17.33 10.39-1.74 15.6-1.73 32.92 19.06 25.99 34.66 19.06 1.73 20.8 5.2 46.78 13.86 13.87v-24.26l25.99-24.26 6.94-20.8-41.59-25.99Zm41.58-89.51 31.19-11 12.13-41.58-12.13-12.13-32.92 6.93-7.21 12.13 8.94 6.93Zm211.26 55.72-11.98-9.53 17.32-12.13 7.03-20.8-12.22-8.66 3.46-10.4 8.67-3.46 7.91-9.53 19.55 18.79-2.61-32.35-11.08-13.3-77.52 9.82V67.48h-14.23l-28.12 36.39-20.4 6.93-19.06-6.93-16.46 17.07 2.6 10.65-24.26 19.06 3.46 9.38 22.53-11.11 17.33 13.86 15.59-3.46-4.78 14.73 20.38 21.66 12.13-6.94-10.4-12.12v-6.94l17.33 10.4 22.83 20.79 8.36-12.13 24.26 12.13.88-10.39h7.78Zm-152.01-3.47-34.12 12.33v24.77l12.64 17.8 29.29-4.14v37.1L453 279.92l13.67-11.72 25.38-54.67-30.77-36.12Zm172.95 70.18-8.66-6.93-26 13.86 3.47 20.79 17.33-1.73 8.55 8.67h17.44l6.67-19.63-8.47-21.96ZM1-1h2L2-2ZM-87.16 207.84l-13.87-10.4-16.03-17.33 7.37-10.4 15.6 10.4 1.73-13.86 17.33-17.33 22.52-8.66-20.79-22.53-12.13 19.06-12.13-19.06 19.06-13.86-7.94-13-12.85 4.33-29.46-8.66-24.26-13.86-17.33 8.66-5.2 27.73h15.6l17.33 10.39-1.74 15.6-1.73 32.92 19.06 25.99 34.66 19.06 1.73 20.8 5.2 46.78 13.86 13.87v-24.26l25.99-24.26 6.94-20.8-41.59-25.99Zm41.58-89.51 31.19-11 12.13-41.58-12.13-12.13-32.92 6.93-7.21 12.13 8.94 6.93Zm211.26 55.72-11.98-9.53 17.32-12.13 7.03-20.8-12.22-8.66 3.46-10.4 8.67-3.46 7.91-9.53 19.55 18.79-2.61-32.35-11.08-13.3-77.52 9.82V67.48H99.98l-28.12 36.39-20.4 6.93-19.06-6.93-16.46 17.07 2.6 10.65-24.26 19.06 3.46 9.38 22.53-11.11 17.33 13.86 15.59-3.46-4.78 14.73 20.38 21.66 12.13-6.94-10.4-12.12v-6.94l17.33 10.4 22.83 20.79 8.36-12.13 24.26 12.13.88-10.39h7.78Zm-152.01-3.47-34.12 12.33v24.77l12.64 17.8 29.29-4.14v37.1L41 279.92l13.67-11.72 25.38-54.67-30.77-36.12Zm172.95 70.18-8.66-6.93-26 13.86 3.47 20.79 17.33-1.73 8.55 8.67h17.44l6.67-19.63-8.47-21.96ZM-411-1h2l-1-1Z"/></clipPath><filter id="c" width="691.2" height="592.8" x="-57.6" y="-49.4" filterUnits="userSpaceOnUse"><feDropShadow color-interpolation-filters="linearRGB" dx="-4" dy="4" flood-color="#000" flood-opacity="1" in="SourceGraphic" result="result1" stdDeviation="0 0"/></filter><filter id="f" width="416.853" height="176.672" x="51.145" y="315.877" filterUnits="userSpaceOnUse"><feDropShadow color-interpolation-filters="linearRGB" dx="-4" dy="4" flood-color="#000" flood-opacity="1" in="SourceGraphic" result="result1" stdDeviation="0 0"/></filter><linearGradient id="g" x1="428.83" x2="86.57" y1="339.55" y2="419.55" gradientUnits="userSpaceOnUse"><stop offset="0" stop-color="#fff"/><stop offset="1" stop-color="silver"/></linearGradient></defs><path fill="#e44d26" d="M73.16 458.92 32.5 2.56h447l-40.66 456.12-183.21 50.76"/><path fill="#fff" d="M137.9 394.93c-65.74 8.22-149.55-27.12-166.81-80.53s30.4-125.72 83.82-173.38c52.59-48.48 110.11-72.31 159.41-67.38s89.57 38.62 137.23 55.06c47.66 16.43 102.72 15.61 137.23 42.73 34.51 26.3 49.3 81.35 54.23 147.09 4.11 66.56-.82 145.44-42.73 141.34-41.91-4.11-119.97-90.39-183.24-107.65-64.1-17.27-112.58 34.5-179.14 42.72" opacity=".2"/><path fill="url(#a)" d="M479.5 165c0 71.797-58.203 130-130 130s-130-58.203-130-130 58.203-130 130-130 130 58.203 130 130"/><g clip-path="url(#b)" filter="url(#c)"><g clip-path="url(#d)"><path fill="url(#e)" d="M0 0h576v494H0Z"/></g></g><path d="M34.39 239.38V212h10.29v27.38Zm20.71 0L65.64 212h10.67l10.54 27.38H76.14l-2-5.1h-6.38l-2 5.1Zm13.77-12.12H73L71 222ZM89 239.38V212h9.78l5.57 11.31 5.5-11.31h9.77v27.38h-10.28v-9.61l-2.43 4.93h-5.23l-2.42-4.93v9.61Zm41 0L140.58 212h10.67l10.54 27.38h-10.71l-2-5.1h-6.38l-1.95 5.1Zm13.77-12.12H148l-2.11-5.26Zm20.15 12.12V212h8.63l7.65 10.71V212h10.28v27.38h-8.67l-7.61-10.71v10.71ZM35.17 354.95V244.06h41.67v36.16h27.72v-36.16h41.67v110.89h-41.67v-36.16H76.83v36.16zm145.32 0v-80.93h-28.24v-29.96h98.14v29.96h-28.24v80.93zm75.93 0V244.06h39.6l22.56 45.8 22.38-45.8h39.6v110.89h-41.67v-38.91l-9.81 19.97H307.9l-9.81-19.97v38.91zm136.19 0V244.06h41.67v79.2h45.28v31.68h-86.95Z"/><g filter="url(#f)"><path fill="url(#g)" d="M86.92 466.47a72.5 72.5 0 0 1-.98-10.36c-.13-4.02-.04-8.36.27-13.01s.79-9.55 1.43-14.69c.65-5.14 1.48-10.31 2.5-15.52.86-4.67 1.98-9.42 3.36-14.27a186 186 0 0 1 10.51-28.07 138 138 0 0 1 6.43-12.14c1.32-.24 2.77-.33 4.36-.28 1.58.06 3.15.22 4.69.49 1.54.28 2.97.68 4.3 1.2 1.33.53 2.43 1.09 3.31 1.7a215 215 0 0 0-13.22 22.25 122 122 0 0 0-8.46 20.36 386 386 0 0 0-2.68 9.55 145 145 0 0 0-3.52 17.3c-.38 2.84-.68 5.8-.88 8.91 12.18-23.06 22.11-35.28 29.78-36.66 2.14-.39 4.58-.1 7.31.85 2.73.96 5.25 2.46 7.58 4.51a96 96 0 0 0-6.08 11.57 167 167 0 0 0-5.33 13.28 109 109 0 0 0-3.56 12.14c-.83 3.68-1.09 6.35-.79 8 .15.83.37 1.36.67 1.6.3.25.86.29 1.69.14a7.5 7.5 0 0 0 2.88-1.03 5.6 5.6 0 0 1 1.27-.74c.53.59.86.99.99 1.23q.195.345.24.6c.06.33-.35.89-1.23 1.69s-1.94 1.63-3.19 2.49a73 73 0 0 1-3.72 2.4 9.9 9.9 0 0 1-2.83 1.28c-.82.15-1.69.07-2.6-.23a7.5 7.5 0 0 1-2.49-1.4 9.3 9.3 0 0 1-1.93-2.21 7.7 7.7 0 0 1-1.07-2.74c-.22-1.24-.2-3.13.06-5.69s.72-5.58 1.37-9.06 1.49-7.31 2.52-11.5 2.17-8.48 3.42-12.88c-.06-.33-.26-.46-.58-.41-.25.04-.83.49-1.74 1.34a68 68 0 0 0-2.55 2.5 68 68 0 0 0-7.48 9.84c-2.42 3.8-4.7 7.89-6.85 12.28a142 142 0 0 0-5.82 13.76 113 113 0 0 0-4.14 14.22 5.3 5.3 0 0 1-.82 1.81c-.41.58-.77.91-1.1.97-.25.04-.65-.18-1.21-.68a10 10 0 0 1-1.63-1.94c-.53-.8-1.04-1.62-1.53-2.47a7.2 7.2 0 0 1-.93-2.28m71.66-6.3a15.98 15.98 0 0 1-12.37-4.15c-3.46-3.12-5.69-7.48-6.71-13.09-.59-3.3-.72-6.81-.37-10.53a50.4 50.4 0 0 1 2.34-11.09 59 59 0 0 1 4.72-10.62 48 48 0 0 1 6.65-9.12c3.92-4.2 7.87-6.66 11.82-7.37 2.89.93 6.02 3.38 9.38 7.37.41-.07.78-.16 1.1-.26s.69-.19 1.1-.26c4.37-.79 7.25 2.69 8.65 10.44.94 5.19.98 10.27.13 15.24a45.8 45.8 0 0 1-4.76 13.95 43.25 43.25 0 0 1-21.68 19.49m-.73-40.1a61.4 61.4 0 0 0-4.84 14.22c-.5 2.43-.8 4.74-.92 6.93s-.02 4.11.27 5.76a16.7 16.7 0 0 0 2.02 5.51c.99 1.7 1.91 2.59 2.78 2.69a27.4 27.4 0 0 0 9.37-6.48 34.1 34.1 0 0 0 6.51-9.92 42.5 42.5 0 0 0 3.24-12.46c.5-4.52.32-9.21-.56-14.07a28 28 0 0 0-1.29-5 9.5 9.5 0 0 0-1.82-2.99 27 27 0 0 0-8.77 6.95c-2.4 2.9-4.4 5.85-5.99 8.86m43.26 28.84a63.2 63.2 0 0 0 9.36-11.84 97.7 97.7 0 0 0 7.55-14.77 92.6 92.6 0 0 0 4.92-15.89 67.2 67.2 0 0 0 1.59-15.23c-.18-.99-.83-1.55-1.97-1.69-1.16.21-2.56 1.51-4.21 3.89a83 83 0 0 0-5.28 8.94 152 152 0 0 0-5.52 11.85 166 166 0 0 0-4.78 12.8 143 143 0 0 0-3.31 11.71c-.84 3.6-1.16 6.45-.95 8.54-.82.15-1.68-.55-2.55-2.09a4.7 4.7 0 0 0-1.1-1.14 13.4 13.4 0 0 0-2.28-1.31c-.47-.25-.95-.57-1.45-.95s-.85-.72-1.08-1.02a7.65 7.65 0 0 1-1.07-3.13 84.5 84.5 0 0 1-1.11-16.78 186.4 186.4 0 0 1 5.24-39.58c1.492-6.225 3.3-12.37 5.42-18.41 2-5.64 4.17-10.5 6.5-14.58s4.71-6.94 7.14-8.57c.87.1 1.93.33 3.19.7s2.53.82 3.82 1.35 2.51 1.08 3.68 1.63c1.16.56 2.05 1.08 2.65 1.57-7.75 8.98-13.9 19.81-18.46 32.51s-7.53 27.26-8.91 43.69c1.53-4.7 3.38-9.31 5.55-13.84 2.16-4.52 4.39-8.56 6.69-12.13a53.4 53.4 0 0 1 6.85-8.77c2.27-2.28 4.27-3.58 6-3.89 1.38.09 2.76.44 4.15 1.04s2.68 1.41 3.89 2.43a19.5 19.5 0 0 1 3.17 3.39c.9 1.24 1.57 2.59 2.01 4.04.54 3.48.61 7.28.21 11.39a71 71 0 0 1-2.36 12.37 91 91 0 0 1-4.34 12.02c-1.72 3.89-3.65 7.36-5.78 10.43q-3.195 4.605-6.66 7.65c-2.31 2.03-4.63 3.26-6.93 3.68a15.6 15.6 0 0 1-6.09-.11 9.5 9.5 0 0 1-2.31-.8c-.66-.32-1-.68-1.08-1.1m50.21-9.06a63.2 63.2 0 0 0 9.36-11.84 97.7 97.7 0 0 0 7.55-14.77 92.6 92.6 0 0 0 4.92-15.89 67.2 67.2 0 0 0 1.59-15.23c-.18-.99-.83-1.55-1.96-1.69-1.16.21-2.56 1.51-4.21 3.89a83 83 0 0 0-5.28 8.94 152 152 0 0 0-5.52 11.85 166 166 0 0 0-4.78 12.8 143 143 0 0 0-3.31 11.71c-.84 3.6-1.16 6.45-.95 8.54-.82.15-1.68-.55-2.55-2.09a4.7 4.7 0 0 0-1.1-1.14 13.4 13.4 0 0 0-2.28-1.31c-.47-.25-.95-.57-1.45-.95s-.85-.72-1.08-1.02a7.65 7.65 0 0 1-1.07-3.13 84.5 84.5 0 0 1-1.11-16.78 186.4 186.4 0 0 1 5.24-39.58c1.492-6.225 3.3-12.37 5.42-18.41 2-5.64 4.17-10.5 6.5-14.58s4.71-6.94 7.14-8.57c.87.1 1.93.33 3.19.7s2.53.82 3.82 1.35 2.51 1.08 3.68 1.63c1.16.56 2.05 1.08 2.64 1.57-7.75 8.98-13.9 19.81-18.46 32.51s-7.53 27.26-8.91 43.69c1.53-4.7 3.38-9.31 5.55-13.84 2.16-4.52 4.39-8.56 6.69-12.13a54 54 0 0 1 6.84-8.77c2.27-2.28 4.27-3.58 6-3.89 1.38.09 2.76.44 4.15 1.04s2.68 1.41 3.89 2.43a19.5 19.5 0 0 1 3.17 3.39c.9 1.24 1.57 2.59 2.01 4.04.54 3.48.61 7.28.21 11.39a71 71 0 0 1-2.36 12.37 91 91 0 0 1-4.34 12.02 62.8 62.8 0 0 1-5.78 10.43 42 42 0 0 1-6.66 7.65c-2.31 2.03-4.63 3.26-6.93 3.68a15.6 15.6 0 0 1-6.09-.11 9.5 9.5 0 0 1-2.31-.8c-.65-.32-1-.69-1.07-1.1m81.72-35.44a296 296 0 0 1-2.72 17.48c-1 5.29-2.2 10.21-3.59 14.76a98 98 0 0 1-4.85 12.75 90 90 0 0 1-6.37 11.43 46.4 46.4 0 0 1-10.11 11.21 26.5 26.5 0 0 1-11.55 5.34q-3.09.555-6.24.42c-2.1-.09-4.11-.37-6.02-.83a24 24 0 0 1-5.19-1.87 9.9 9.9 0 0 1-3.5-2.75q-.27-1.485 1.26-2.91c1.15.73 2.1 1.28 2.85 1.66s1.46.67 2.14.89 1.38.3 2.09.26a23 23 0 0 0 2.43-.31c4.7-.85 9.05-3.06 13.04-6.63s7.53-8.26 10.62-14.05q4.62-8.685 7.62-20.4a149.4 149.4 0 0 0 4.04-25.7l-2.87 6.76a91 91 0 0 1-3.91 8.03 62 62 0 0 1-4.73 7.41 17.4 17.4 0 0 1-5.18 4.88 13.8 13.8 0 0 1-4.27.06c-1.53-.2-3-.6-4.43-1.19a16 16 0 0 1-3.94-2.37 9.2 9.2 0 0 1-2.7-3.63 38.5 38.5 0 0 1-.78-10.72c.18-3.27.63-7.01 1.36-11.23s1.71-8.42 2.96-12.6a86.6 86.6 0 0 1 4.49-11.92 34.8 34.8 0 0 1 5.94-9.18 19.9 19.9 0 0 1 5.72-.14c1.13.14 2.23.34 3.3.62s2.04.72 2.92 1.32q-1.14 1.485-4.44 9.36t-6.48 22.11c-.25.98-.51 2.39-.77 4.23a127 127 0 0 0-1.11 11.56c-.09 1.89-.03 3.37.16 4.44a2.85 2.85 0 0 0 1.27 2.07c1.44-.52 3.2-2.09 5.28-4.72s4.27-6.54 6.57-11.72c1.44-3.33 2.72-6.6 3.85-9.82 1.12-3.22 2.22-6.47 3.29-9.72 1.07-3.26 2.19-6.61 3.36-10.06 1.17-3.44 2.44-7 3.82-10.65 1.07-.19 2.25-.28 3.53-.25 1.28.02 2.53.12 3.75.28s2.31.39 3.25.69c.95.3 1.67.66 2.17 1.08q-2.355 8.85-4.29 17.25a181 181 0 0 0-3.04 17.02m7.9 9.81c-.13-.74-.24-1.68-.32-2.82a68 68 0 0 1-.12-4.57c-.01-1.91.02-4.24.08-6.97s.17-6.03.32-9.89a48.8 48.8 0 0 1 1.65-10.32 37.3 37.3 0 0 1 2.4-6.5 13 13 0 0 1 4.13-5.09c1.46.08 3.47.59 6.02 1.53s4.87 2.46 6.95 4.56a44 44 0 0 0-3.6 7.29 67 67 0 0 0-2.26 7.3 93 93 0 0 0-1.55 7.69c-.42 2.63-.92 5.4-1.5 8.32a96 96 0 0 0-1.19 7.56c-.3 2.57-.33 4.77-.09 6.59.27 1.48.44 2.54.51 3.16q.105.945-.51 1.05a7 7 0 0 1-2.09-.26 12.4 12.4 0 0 1-3.38-1.37 13.7 13.7 0 0 1-3.37-2.78 8.77 8.77 0 0 1-2.08-4.48m13.93-57.94c-.09-.49-.1-1.26-.03-2.29a4.9 4.9 0 0 1-1.39-1.67 6.6 6.6 0 0 1-.83-2.15q-.195-1.11-.24-3.09a63.4 63.4 0 0 1 .46-9.15c.2-1.7.44-3.25.69-4.66a10.9 10.9 0 0 1 3.79.15 30.1 30.1 0 0 1 9.36 3.42c1.42.81 2.54 1.61 3.37 2.39-.74 1.07-1.71 2.54-2.91 4.42a92 92 0 0 0-3.41 5.85 202 202 0 0 0-2.93 5.7 28.5 28.5 0 0 0-1.62 3.74 4.95 4.95 0 0 1-2.83-.83c-.87-.55-1.36-1.17-1.48-1.83m42.21 5.34a26.8 26.8 0 0 1-.76 9.91 17.7 17.7 0 0 1-1.49 3.78q-.87 1.56-1.86 1.74c-.92.08-1.57-.44-1.94-1.56-.04-.25-.01-.66.1-1.23l.36-1.92c.13-.7.24-1.4.32-2.1.09-.7.09-1.29 0-1.79a5.13 5.13 0 0 0-1.33-2.76 2.52 2.52 0 0 0-2.38-.78c-3.3.6-5.44 3.1-6.43 7.52s-.77 10.6.67 18.56c.15.82.28 1.31.39 1.45l4.64-.84 4.02-.73q.165.225.3.96c.13.74.06 1.3-.21 1.69a152 152 0 0 0-4.33 1.86c-1.06.49-1.86.91-2.39 1.26s-.83.68-.91.99q-.105.465.03 1.2c.12.66.26 1.31.42 1.96s.33 1.46.51 2.45c1.24 6.89.37 12.78-2.62 17.65s-7.77 8.24-14.33 10.11c-1.17.13-2.42.01-3.76-.34a17 17 0 0 1-3.93-1.59 16.8 16.8 0 0 1-3.45-2.51 10.7 10.7 0 0 1-2.35-3.09c-.57-3.16-.45-6.29.35-9.39s2.14-5.96 4.01-8.57a27.8 27.8 0 0 1 7.07-6.81 25 25 0 0 1 9.71-3.88 30 30 0 0 0-1.72-5.97c-.77-1.91-1.55-3.76-2.34-5.54l-2.29-5.23a23.6 23.6 0 0 1-1.57-5.17c-.4-2.23-.35-4.53.16-6.89s1.34-4.6 2.49-6.73a23.3 23.3 0 0 1 4.33-5.72 19.2 19.2 0 0 1 5.69-3.85c.95.08 2.3.59 4.04 1.51s3.49 1.99 5.24 3.2a45 45 0 0 1 4.77 3.8c1.41 1.32 2.34 2.45 2.77 3.39m-30.63 63.77a20.7 20.7 0 0 0 4.98-4.6 28 28 0 0 0 3.68-6.16 29.2 29.2 0 0 0 2.02-6.88c.38-2.37.38-4.62-.01-6.77a14.5 14.5 0 0 0-5.03 3.27 33 33 0 0 0-4.74 5.58 32 32 0 0 0-3.34 6.28c-.81 2.11-1.09 3.86-.84 5.26a5.34 5.34 0 0 0 3.28 4.02m30.26-61.59c-.5-.42-1.06-1.4-1.68-2.95a21.6 21.6 0 0 1-1.24-4.05c2.2-.06 4.29-.26 6.27-.62l5.44-.98c.8-2.67 1.7-5.33 2.71-8a141 141 0 0 1 3.01-7.36 58 58 0 0 1 2.92-5.77c.94-1.6 1.71-2.67 2.3-3.19.82-.15 1.9-.19 3.23-.14 2.68.125 5.34.52 7.94 1.18a6.5 6.5 0 0 1 2.49 1.08 136 136 0 0 0-4.81 9.81 235 235 0 0 0-4.1 10.19l5.01-.9c1.72-.31 3.413-.745 5.07-1.3a5.17 5.17 0 0 1 1.99 3.22c-3.76 2.3-8.52 3.96-14.29 5.01a145 145 0 0 0-3.37 12.84c-.9 4.22-1.58 8.24-2.03 12.08-.46 3.84-.7 7.43-.74 10.76s.18 6.28.64 8.85c.66 3.64 2.38 5.42 5.18 5.34a29.2 29.2 0 0 0 6.71-3.13 24 24 0 0 0 5.31-4.53c.512.479.92 1.057 1.2 1.7-.36.83-1.05 1.84-2.07 3.04a53 53 0 0 1-3.37 3.59 37 37 0 0 1-3.65 3.13c-1.2.89-2.12 1.44-2.77 1.64-2.06.37-4.2.33-6.41-.12a26 26 0 0 1-6.19-2.08 18.4 18.4 0 0 1-4.89-3.4 7.88 7.88 0 0 1-2.42-4.23 45 45 0 0 1-.55-7.64q-.015-4.665.51-10.26a213 213 0 0 1 3.7-24.07z"/></g></svg>