<svg width="204" height="38" viewBox="0 0 204 38" xmlns="http://www.w3.org/2000/svg"><defs><mask id="a" x="-.1" y="-.1" width="1.2" height="1.2"><path fill="#fff" fill-rule="evenodd" d="M30 15c0 8.284-6.716 15-15 15-8.284 0-15-6.716-15-15C0 6.716 6.716 0 15 0c8.284 0 15 6.716 15 15Z"/></mask><mask id="b" x="-.1" y="-.1" width="1.2" height="1.2"><path fill="#fff" fill-rule="evenodd" d="M0 0h16.567v15.69H0Z"/></mask></defs><path fill="#fff" fill-rule="evenodd" stroke="#31576b" d="M19 .5h166c10.217 0 18.5 8.283 18.5 18.5s-8.283 18.5-18.5 18.5H19C8.783 37.5.5 29.217.5 19S8.783.5 19 .5Z"/><path d="M55.188 9c2.005 0 3.596.684 4.772 2.05 1.175 1.368 1.763 3.341 1.763 5.92v4.553c0 2.589-.583 4.562-1.75 5.92-1.166 1.358-2.752 2.037-4.758 2.037-2.014 0-3.609-.679-4.785-2.037-1.175-1.358-1.763-3.331-1.763-5.92v-4.552c0-2.58.583-4.553 1.75-5.92C51.583 9.684 53.174 9 55.188 9ZM44.37 9v19.906h-3.322V12.158H37V9.711Zm10.82 2.666c-1.049 0-1.844.392-2.387 1.176-.542.784-.813 1.991-.813 3.623v5.537c0 1.64.276 2.855.827 3.644.552.788 1.351 1.182 2.4 1.182 1.048 0 1.84-.392 2.378-1.176.538-.784.807-2 .807-3.65v-5.537c0-1.632-.273-2.84-.82-3.623-.547-.784-1.345-1.176-2.393-1.176Zm22.868 9.857c0 2.589-.584 4.562-1.75 5.92-1.167 1.358-2.753 2.037-4.758 2.037-2.015 0-3.61-.679-4.785-2.037C65.588 26.085 65 24.112 65 21.523v-4.552c0-2.58.583-4.553 1.75-5.92S69.507 9 71.521 9c2.006 0 3.596.684 4.772 2.05 1.176 1.368 1.764 3.341 1.764 5.92Zm-3.323-5.058c0-1.632-.273-2.84-.82-3.623-.547-.784-1.344-1.176-2.393-1.176-1.048 0-1.843.392-2.385 1.176-.543.784-.814 1.991-.814 3.623v5.537c0 1.64.276 2.855.827 3.644.552.788 1.352 1.182 2.4 1.182 1.048 0 1.841-.392 2.379-1.176.537-.784.806-2 .806-3.65Zm6.6-3.35c0-1.166.375-2.144 1.127-2.932C83.213 9.394 84.241 9 85.544 9c1.313 0 2.345.392 3.097 1.176.752.784 1.128 1.763 1.128 2.94v1.052c0 1.167-.376 2.14-1.128 2.919-.752.78-1.775 1.169-3.07 1.169-1.312 0-2.346-.39-3.103-1.17-.756-.778-1.135-1.751-1.135-2.918Zm2.31 1.053c0 .583.166 1.078.499 1.483.333.406.809.609 1.429.609.601 0 1.064-.2 1.387-.602.324-.4.486-.898.486-1.49v-1.053c0-.592-.167-1.094-.5-1.504-.332-.41-.8-.615-1.4-.615-.611 0-1.08.205-1.409.615-.328.41-.492.912-.492 1.504Zm7.26 10.145c0-1.158.378-2.131 1.134-2.92.757-.788 1.782-1.182 3.077-1.182 1.312 0 2.344.392 3.096 1.176.752.784 1.128 1.759 1.128 2.925v1.067c0 1.176-.376 2.153-1.128 2.933-.752.779-1.775 1.168-3.07 1.168-1.312 0-2.346-.391-3.103-1.175-.756-.784-1.134-1.76-1.134-2.926Zm2.31 1.066c0 .583.171 1.08.513 1.49.342.41.813.615 1.415.615.638 0 1.112-.198 1.422-.594.31-.397.465-.9.465-1.511v-1.067c0-.583-.167-1.08-.5-1.49-.332-.41-.804-.615-1.414-.615-.611 0-1.08.205-1.409.615-.328.41-.492.907-.492 1.49Zm-6.959 2.324-1.709-.984 9.72-15.559 1.71.985ZM109.406 14.457h.035l1.22-5.848h1.67l-1.993 8.532h-1.588l-1.564-5.631h-.036l-1.564 5.63h-1.588L102 8.61h1.676l1.224 5.841.036.006 1.6-5.848h1.259Zm6.34 2.807c-.914 0-1.644-.293-2.191-.88-.547-.585-.82-1.33-.82-2.232v-.234c0-.941.258-1.717.776-2.326.517-.61 1.212-.912 2.083-.908.855 0 1.52.257 1.992.773.473.516.709 1.213.709 2.092v.931h-3.785l-.012.036c.031.418.17.761.419 1.03.248.27.585.405 1.01.405.38 0 .694-.038.944-.114.25-.076.524-.196.82-.36l.463 1.054c-.258.211-.595.386-1.013.525a4.41 4.41 0 0 1-1.395.208Zm-.152-5.262a.89.89 0 0 0-.75.363c-.184.242-.297.56-.34.955l.017.03h2.098v-.153c0-.363-.085-.653-.255-.87-.17-.217-.426-.325-.77-.325Zm9.416 2.144c0 .946-.211 1.702-.633 2.268-.422.566-1.031.85-1.828.85a1.94 1.94 0 0 1-.964-.232 1.993 1.993 0 0 1-.7-.677l-.13.786h-1.464V8h1.705v3.475c.184-.254.403-.45.66-.586.255-.137.55-.205.881-.205.805 0 1.418.303 1.84.91.422.608.633 1.418.633 2.43Zm-1.705-.123c0-.617-.091-1.106-.273-1.467-.181-.362-.491-.542-.928-.542-.266 0-.49.055-.674.167-.184.111-.328.27-.434.477v2.684c.106.191.251.338.437.44.185.1.413.152.682.152.442 0 .75-.156.926-.466.176-.31.264-.751.264-1.322Zm6.187 1.372c0-.188-.09-.35-.272-.487-.182-.137-.519-.258-1.011-.363-.75-.152-1.315-.378-1.696-.677-.381-.299-.572-.706-.572-1.222 0-.546.23-1.01.689-1.391.459-.381 1.073-.571 1.843-.571.808 0 1.452.189 1.93.568.479.379.708.857.689 1.435l-.012.036h-1.652a.835.835 0 0 0-.243-.621c-.163-.16-.4-.24-.712-.24-.278 0-.495.067-.654.201a.638.638 0 0 0-.237.507c0 .196.083.356.25.48.165.126.502.237 1.01.335.781.156 1.361.386 1.74.688.379.303.568.72.568 1.251 0 .57-.244 1.036-.732 1.398-.488.361-1.133.542-1.934.542-.843 0-1.51-.214-2-.642-.49-.428-.724-.915-.7-1.462l.01-.035h1.565c.012.34.123.586.334.738.211.153.487.229.827.229.316 0 .557-.063.723-.188a.604.604 0 0 0 .25-.51Zm4.559 1.746h-1.711V10.8h1.71Zm0-7.858h-1.711V8h1.71Zm3.44-.035v1.553h1.066v1.201h-1.067v3.228c0 .247.051.422.153.528a.543.543 0 0 0 .41.158 1.572 1.572 0 0 0 .457-.064l.146 1.236a3.037 3.037 0 0 1-1.037.176c-.59 0-1.044-.162-1.362-.487-.319-.324-.478-.838-.478-1.54v-3.235h-.925v-1.201h.925V9.248Zm4.962 8.016c-.914 0-1.644-.293-2.191-.88-.547-.585-.82-1.33-.82-2.232v-.234c0-.941.258-1.717.776-2.326.517-.61 1.212-.912 2.083-.908.855 0 1.52.257 1.992.773.473.516.709 1.213.709 2.092v.931h-3.785l-.012.036c.031.418.171.761.419 1.03.248.27.585.405 1.01.405.38 0 .694-.038.944-.114.25-.076.524-.196.82-.36l.463 1.054c-.257.211-.595.386-1.013.525a4.41 4.41 0 0 1-1.395.208Zm-.152-5.262a.89.89 0 0 0-.75.363c-.184.242-.297.56-.34.955l.018.03h2.097v-.153c0-.363-.085-.653-.255-.87-.17-.217-.426-.325-.77-.325Zm8.719-2.754v1.553h1.066v1.201h-1.066v3.228c0 .247.05.422.152.528a.543.543 0 0 0 .41.158 1.572 1.572 0 0 0 .457-.064l.147 1.236a3.037 3.037 0 0 1-1.037.176c-.59 0-1.045-.162-1.363-.487-.318-.324-.477-.838-.477-1.54v-3.235h-.926v-1.201h.926V9.248Zm4.962 8.016c-.914 0-1.644-.293-2.191-.88-.547-.585-.82-1.33-.82-2.232v-.234c0-.941.258-1.717.776-2.326.518-.61 1.212-.912 2.083-.908.856 0 1.52.257 1.992.773.473.516.71 1.213.71 2.092v.931h-3.786l-.012.036c.032.418.171.761.42 1.03.247.27.584.405 1.01.405.379 0 .693-.038.943-.114.25-.076.524-.196.82-.36l.464 1.054c-.258.211-.596.386-1.014.525a4.41 4.41 0 0 1-1.395.208Zm-.152-5.262a.89.89 0 0 0-.75.363c-.184.242-.297.56-.34.955l.018.03h2.097v-.153c0-.363-.084-.653-.254-.87-.17-.217-.427-.325-.77-.325Zm7.125 3.393c0-.188-.09-.35-.272-.487-.182-.137-.519-.258-1.011-.363-.75-.152-1.316-.378-1.696-.677-.381-.299-.572-.706-.572-1.222 0-.546.23-1.01.689-1.391.459-.381 1.073-.571 1.843-.571.808 0 1.452.189 1.93.568.479.379.708.857.689 1.435l-.012.036h-1.652a.835.835 0 0 0-.244-.621c-.162-.16-.399-.24-.711-.24-.278 0-.496.067-.654.201a.638.638 0 0 0-.237.507c0 .196.083.356.249.48.166.126.503.237 1.01.335.782.156 1.362.386 1.74.688.38.303.57.72.57 1.251 0 .57-.245 1.036-.733 1.398-.488.361-1.133.542-1.934.542-.843 0-1.51-.214-2-.642-.49-.428-.724-.915-.7-1.462l.01-.035h1.565c.012.34.123.586.334.738.211.153.487.229.826.229.317 0 .558-.063.724-.188a.604.604 0 0 0 .25-.51Zm4.793-6.147v1.553h1.066v1.201h-1.066v3.228c0 .247.05.422.152.528a.543.543 0 0 0 .41.158 1.572 1.572 0 0 0 .458-.064l.146 1.236a3.037 3.037 0 0 1-1.037.176c-.59 0-1.044-.162-1.362-.487-.319-.324-.478-.838-.478-1.54v-3.235h-.926v-1.201h.926V9.248Zm-63.615 20.893h-1.16v-8.532h1.16Zm2.988-6.34.082.943c.211-.336.476-.597.794-.782.318-.186.68-.278 1.087-.278.684 0 1.213.2 1.588.6.375.4.562 1.019.562 1.855v4.002h-1.154v-3.979c0-.558-.11-.955-.331-1.19-.22-.234-.558-.35-1.01-.35-.333 0-.627.08-.883.24-.255.16-.46.378-.612.656v4.623h-1.154V23.8Zm7.313-1.53v1.53h1.2v.855h-1.2v3.85c0 .297.061.506.184.627a.667.667 0 0 0 .49.181 1.345 1.345 0 0 0 .434-.082l.151.791c-.086.07-.212.128-.378.173a1.91 1.91 0 0 1-.5.068c-.47 0-.842-.142-1.12-.425-.277-.283-.416-.728-.416-1.333v-3.85h-1.008v-.855h1.008v-1.53Zm5.255 7.993c-.882 0-1.585-.294-2.106-.882-.521-.588-.782-1.35-.782-2.288v-.258c0-.902.268-1.653.805-2.253.538-.6 1.173-.9 1.908-.9.855 0 1.502.258 1.94.774.437.516.655 1.203.655 2.063v.72h-4.113l-.017.03c.011.609.166 1.11.462 1.502.297.393.713.59 1.248.59.391 0 .734-.056 1.029-.168.295-.111.55-.264.764-.46l.452.75a2.682 2.682 0 0 1-.897.557c-.371.148-.82.223-1.348.223Zm-.175-5.672c-.387 0-.717.163-.99.49-.274.325-.442.734-.504 1.227l.011.029h2.924v-.152c0-.454-.121-.832-.363-1.137-.242-.305-.602-.457-1.078-.457Zm6.89.228-.591-.035c-.305 0-.562.072-.771.217a1.39 1.39 0 0 0-.483.61v4.529h-1.155V23.8h1.032l.11.926a2.2 2.2 0 0 1 .666-.768c.264-.184.567-.275.911-.275a1.63 1.63 0 0 1 .44.064Zm2.145-1.02.082.944c.21-.336.475-.597.794-.782.318-.186.68-.278 1.087-.278.683 0 1.213.2 1.588.6.375.4.562 1.019.562 1.855v4.002h-1.154v-3.979c0-.558-.11-.955-.331-1.19-.22-.234-.558-.35-1.011-.35-.332 0-.626.08-.882.24-.256.16-.46.378-.612.656v4.623h-1.154V23.8Zm8.42 6.464c-.883 0-1.585-.294-2.107-.882-.521-.588-.782-1.35-.782-2.288v-.258c0-.902.269-1.653.806-2.253.537-.6 1.173-.9 1.907-.9.855 0 1.502.258 1.94.774.437.516.656 1.203.656 2.063v.72h-4.114l-.017.03c.012.609.166 1.11.463 1.502.297.393.713.59 1.248.59.39 0 .733-.056 1.028-.168.295-.111.55-.264.765-.46l.45.75a2.682 2.682 0 0 1-.896.557c-.37.148-.82.223-1.347.223Zm-.176-5.672c-.387 0-.717.163-.99.49-.274.325-.442.734-.504 1.227l.012.029h2.923v-.152c0-.454-.12-.832-.363-1.137-.242-.305-.601-.457-1.078-.457Zm5.414-2.32V23.8h1.201v.855h-1.201v3.85c0 .297.062.506.185.627a.667.667 0 0 0 .489.181 1.345 1.345 0 0 0 .434-.082l.152.791c-.086.07-.212.128-.378.173a1.91 1.91 0 0 1-.501.068c-.469 0-.842-.142-1.12-.425-.277-.283-.415-.728-.415-1.333v-3.85h-1.008v-.855h1.008v-1.53Zm3.885 7.869h-1.155v-1.184h1.155Zm2.982-6.34.082.943c.211-.336.476-.597.794-.782.319-.186.68-.278 1.087-.278.684 0 1.213.2 1.588.6.375.4.563 1.019.563 1.855v4.002h-1.155v-3.979c0-.558-.11-.955-.33-1.19-.222-.234-.558-.35-1.012-.35-.332 0-.626.08-.881.24-.256.16-.46.378-.613.656v4.623h-1.154V23.8Zm7.037 6.34h-1.154V21h1.154Z"/><path fill="#fff" fill-rule="evenodd" d="M201 19c0 8.284-6.716 15-15 15-8.284 0-15-6.716-15-15 0-8.284 6.716-15 15-15 8.284 0 15 6.716 15 15Z"/><path fill="#009f33" fill-rule="evenodd" d="M195.562 10.974 186.397 6.1a.845.845 0 0 0-.797 0l-9.165 4.875a.81.81 0 0 0-.435.713v6.5c0 3.575.945 6.465 2.891 8.836 1.52 1.852 3.598 3.36 6.736 4.89a.854.854 0 0 0 .746 0c3.138-1.53 5.216-3.038 6.736-4.89 1.944-2.371 2.891-5.262 2.891-8.835v-6.5a.81.81 0 0 0-.435-.714Z"/><path fill="#fff" fill-rule="evenodd" d="M191.455 13 193 14.552l-7.83 7.864.031.032L183.656 24 178 18.319l1.545-1.552 4.08 4.097Z"/><path fill="#00bfd6" fill-rule="evenodd" d="M34.531 19c0 8.284-6.715 15-15 15-8.284 0-15-6.716-15-15 0-8.284 6.716-15 15-15 8.285 0 15 6.716 15 15Z"/><g mask="url(#a)" transform="translate(4.531 4)"><g mask="url(#b)" transform="rotate(20 15.7 24.823)" fill="#fff"><path d="M16.567 18.465c1.568 0 2.823-1.236 2.823-2.74 0-1.503-1.255-2.739-2.823-2.739-1.567 0-2.822 1.236-2.822 2.74 0 1.503 1.255 2.739 2.822 2.739Zm0 2.7c-3.05 0-5.522-2.435-5.522-5.44 0-3.004 2.472-5.439 5.522-5.439 3.05 0 5.523 2.435 5.523 5.44 0 3.004-2.473 5.439-5.523 5.439Z"/><path d="M16.567 23.451c4.641 0 8.345-3.508 8.345-7.76s-3.704-7.76-8.345-7.76c-4.64 0-8.345 3.508-8.345 7.76s3.705 7.76 8.345 7.76Zm0 2.7c-6.1 0-11.045-4.683-11.045-10.46 0-5.777 4.945-10.46 11.045-10.46s11.045 4.683 11.045 10.46c0 5.777-4.945 10.46-11.045 10.46Z"/><path d="M16.568 28.681c7.69 0 13.867-5.85 13.867-12.99C30.435 8.55 24.258 2.7 16.568 2.7 8.877 2.7 2.7 8.55 2.7 15.69c0 7.141 6.177 12.991 13.868 12.991Zm0 2.7C7.418 31.381 0 24.356 0 15.691 0 7.025 7.418 0 16.568 0c9.15 0 16.567 7.025 16.567 15.69 0 8.666-7.418 15.691-16.567 15.691Z"/></g><path fill="#fff" fill-rule="evenodd" d="M19.575 10.978c3.272 0 5.925 2.686 5.925 6 0 3.313-2.653 6-5.925 6a5.844 5.844 0 0 1-3.214-.96l-3.772 3.773a1.35 1.35 0 1 1-1.91-1.91l3.815-3.815a6.03 6.03 0 0 1-.844-3.088c0-3.314 2.653-6 5.925-6Z"/><path fill="#ffac40" d="M19.65 18.57c.826 0 1.506-.688 1.506-1.549 0-.86-.68-1.549-1.506-1.549s-1.506.688-1.506 1.55c0 .86.68 1.549 1.506 1.549Zm0 1.945c-1.905 0-3.45-1.564-3.45-3.494 0-1.93 1.545-3.493 3.45-3.493 1.905 0 3.45 1.564 3.45 3.493 0 1.93-1.545 3.494-3.45 3.494Z"/></g></svg>
