<svg xmlns="http://www.w3.org/2000/svg" width="287" height="250"><path fill="#fff" fill-rule="evenodd" stroke="#525252" stroke-linecap="round" stroke-linejoin="round" stroke-miterlimit="1.5" stroke-width="10" d="M250.12 63c0-13.81-11.21-25.02-25.01-25.02H61.18c-13.8 0-25.01 11.21-25.01 25.02v123.47c0 13.8 11.21 25.01 25.01 25.01h163.93c13.8 0 25.01-11.21 25.01-25.01z"/><path fill="#16a34a" d="M114.76 105.35h-11.74L84.44 73.01l-.21.07v32.27H72.42V54.61h11.81l18.58 32.34.21-.07V54.61h11.74zM164.7 84.55c0 6.24-1.98 11.4-5.94 15.45s-9.14 6.08-15.53 6.08c-6.43 0-11.65-2.03-15.64-6.08-4-4.05-6-9.21-6-15.45v-9.13c0-6.23 1.99-11.38 5.98-15.44 3.98-4.07 9.18-6.1 15.59-6.1 6.37 0 11.55 2.03 15.54 6.1 4 4.06 6 9.21 6 15.44zm-11.75-9.2c0-3.63-.85-6.6-2.56-8.93-1.7-2.32-4.12-3.48-7.23-3.48-3.18 0-5.61 1.16-7.3 3.47q-2.52 3.465-2.52 8.94v9.2c0 3.67.85 6.66 2.56 8.99 1.7 2.32 4.15 3.48 7.33 3.48 3.09 0 5.48-1.16 7.18-3.48 1.7-2.33 2.54-5.32 2.54-8.99zM213.87 105.35h-11.75l-18.57-32.34-.21.07v32.27h-11.81V54.61h11.81l18.58 32.34.2-.07V54.61h11.75zM70.08 162.14v-50.73H87.5c6.3 0 11.21 1.16 14.74 3.5 3.54 2.33 5.3 5.81 5.3 10.43q0 3.63-1.71 6.45c-1.13 1.88-2.89 3.3-5.26 4.25 2.98.68 5.17 2.03 6.59 4.06s2.12 4.38 2.12 7.02c0 4.95-1.66 8.69-4.98 11.23-3.32 2.53-8.08 3.79-14.29 3.79zm11.81-21.78v12.72h8.12c2.51 0 4.39-.49 5.65-1.48 1.25-.99 1.88-2.5 1.88-4.55 0-2.2-.54-3.87-1.62-5-1.08-1.12-2.83-1.69-5.24-1.69zm0-7.8h5.86c2.67-.05 4.67-.57 5.99-1.55 1.33-.99 1.99-2.44 1.99-4.34 0-2.16-.68-3.74-2.02-4.72-1.35-.99-3.42-1.48-6.21-1.48h-5.61zM216.21 120.47h-13.38v41.67h-11.82v-41.67h-13.27v-9.06h38.47zM111.8 136.77v12.69c0 1.75 1.42 3.17 3.17 3.17h3.17V133.6h-3.17c-1.75 0-3.17 1.42-3.17 3.17m45.98-15.85h-11.1v-6.34c0-1.76-1.42-3.17-3.17-3.17s-3.17 1.41-3.17 3.17v6.34h-11.1a7.93 7.93 0 0 0-7.93 7.93v26.95c0 3.5 2.85 6.34 6.34 6.34h31.72c3.49 0 6.34-2.84 6.34-6.34v-26.95a7.93 7.93 0 0 0-7.93-7.93m-20.61 31.71h-6.34v-3.17h6.34zM134 140.74c-2.19 0-3.97-1.78-3.97-3.97s1.78-3.96 3.97-3.96 3.96 1.77 3.96 3.96-1.77 3.97-3.96 3.97m12.68 11.89h-6.34v-3.17h6.34zm9.52 0h-6.35v-3.17h6.35zm-3.18-11.89c-2.19 0-3.96-1.78-3.96-3.97s1.77-3.96 3.96-3.96 3.97 1.77 3.97 3.96-1.78 3.97-3.97 3.97m19.03-7.14h-3.17v19.03h3.17c1.76 0 3.17-1.42 3.17-3.17v-12.69c0-1.75-1.41-3.17-3.17-3.17"/><path fill="#525252" fill-rule="evenodd" d="m250.12 167.69-213.95.23v25.09c0 8.82 7.13 15.97 15.95 15.99l181.65.41c4.33.01 8.49-1.71 11.56-4.77a16.3 16.3 0 0 0 4.79-11.55z"/><g fill="#fff"><path d="M85.45 193.25v8.68h-5.9v-25.32h10.28c3 0 5.39.77 7.15 2.31 1.76 1.53 2.64 3.54 2.64 6.02q0 3.735-2.64 6.03c-1.76 1.52-4.15 2.28-7.15 2.28zm0-4.52h4.38q1.92 0 2.91-1.05c.67-.7 1-1.6 1-2.7 0-1.13-.33-2.05-1-2.77q-.99-1.08-2.91-1.08h-4.38zM102.87 174.8h5.9v27.13h-5.9ZM120.96 202.29c-2.77 0-4.98-.86-6.64-2.6-1.65-1.74-2.47-3.92-2.47-6.54v-.66c0-2.87.75-5.2 2.25-7.02 1.5-1.81 3.65-2.71 6.44-2.7 2.55 0 4.55.76 6 2.29s2.17 3.61 2.17 6.23v3.08h-10.74l-.04.1c.13.96.52 1.75 1.18 2.37s1.55.93 2.65.93c1.11 0 2-.08 2.67-.26.66-.17 1.51-.47 2.53-.9l1.39 3.58c-.83.6-1.89 1.11-3.19 1.51-1.31.39-2.71.59-4.2.59m-.42-15c-.85 0-1.48.3-1.9.9-.43.61-.69 1.41-.78 2.42l.05.09h5.06v-.46c0-.95-.19-1.68-.59-2.19-.39-.51-1.01-.76-1.84-.76M130.42 192.56c0-2.94.64-5.3 1.92-7.1 1.28-1.79 3.08-2.69 5.41-2.69.87 0 1.66.2 2.36.6q1.05.6 1.89 1.71V174.8h5.87v27.13h-5.09l-.42-2.31c-.58.87-1.25 1.53-2.02 1.99s-1.65.68-2.62.68c-2.32 0-4.12-.85-5.39-2.57-1.28-1.71-1.91-3.98-1.91-6.8zm5.87.36c0 1.53.23 2.72.67 3.58.45.85 1.2 1.27 2.25 1.27.62 0 1.16-.11 1.63-.34.47-.22.86-.55 1.16-1v-7.59c-.3-.5-.69-.88-1.15-1.15-.47-.27-1-.4-1.6-.4-1.04 0-1.8.48-2.26 1.44-.47.96-.7 2.24-.7 3.83zM150.43 192.56c0-2.94.64-5.3 1.91-7.1 1.28-1.79 3.08-2.69 5.41-2.69 1 0 1.87.23 2.63.7.75.47 1.4 1.14 1.94 2.01l.4-2.36h5.15v18.08c0 2.52-.86 4.53-2.59 6.05s-4.05 2.28-6.97 2.28c-.98 0-2-.13-3.06-.4-1.07-.27-2.08-.63-3.05-1.08l.96-4.35c.86.37 1.68.65 2.45.83.78.18 1.66.27 2.66.27 1.21 0 2.13-.33 2.77-.97.64-.65.95-1.54.95-2.67v-.95c-.53.68-1.15 1.2-1.86 1.55-.7.36-1.51.53-2.41.53-2.32 0-4.12-.85-5.39-2.57-1.26-1.71-1.9-3.98-1.9-6.8zm5.86.36c0 1.53.22 2.72.67 3.58.45.85 1.2 1.27 2.25 1.27.64 0 1.19-.09 1.65-.29.45-.2.83-.5 1.13-.91v-7.89c-.29-.44-.66-.78-1.12-1.03q-.69-.36-1.62-.36c-1.05 0-1.8.48-2.26 1.44-.47.96-.7 2.24-.7 3.83zM179.82 202.29c-2.77 0-4.98-.86-6.64-2.6-1.65-1.74-2.47-3.92-2.47-6.54v-.66c0-2.87.75-5.2 2.25-7.02 1.5-1.81 3.65-2.71 6.44-2.7 2.55 0 4.55.76 6 2.29s2.17 3.61 2.17 6.23v3.08h-10.74l-.04.1c.13.96.52 1.75 1.18 2.37.67.62 1.55.93 2.65.93 1.11 0 2-.08 2.67-.26.66-.17 1.51-.47 2.53-.9l1.39 3.58c-.83.6-1.89 1.11-3.19 1.51-1.31.39-2.71.59-4.2.59m-.42-15c-.85 0-1.48.3-1.9.9-.43.61-.69 1.41-.78 2.42l.05.09h5.06v-.46c0-.95-.19-1.68-.59-2.19-.39-.51-1.01-.76-1.84-.76M189.28 192.56c0-2.94.64-5.3 1.92-7.1 1.28-1.79 3.08-2.69 5.41-2.69.87 0 1.66.2 2.36.6q1.05.6 1.89 1.71V174.8h5.88v27.13h-5.1l-.42-2.31c-.58.87-1.25 1.53-2.02 1.99s-1.65.68-2.62.68c-2.32 0-4.12-.85-5.39-2.57-1.28-1.71-1.91-3.98-1.91-6.8zm5.87.36c0 1.53.23 2.72.67 3.58.45.85 1.2 1.27 2.26 1.27.61 0 1.15-.11 1.62-.34.47-.22.86-.55 1.16-1v-7.59c-.3-.5-.69-.88-1.15-1.15s-1-.4-1.6-.4c-1.04 0-1.8.48-2.26 1.44s-.7 2.24-.7 3.83z"/></g></svg>