<svg width="131" height="42" xmlns="http://www.w3.org/2000/svg"><path fill="#fff" stroke="#000" d="M.857.602H116c8.008 0 14.5 6.491 14.5 14.5v26.173H15.357c-8.008 0-14.5-6.491-14.5-14.5V.603Z"/><path fill-rule="evenodd" d="M33.087 21.277a9.498 9.498 0 0 1-9.498 9.498 9.498 9.498 0 1 1 9.498-9.498Zm2.158 0c0 6.438-5.218 11.656-11.656 11.656-6.437 0-11.656-5.218-11.656-11.656 0-6.437 5.219-11.656 11.656-11.656 6.438 0 11.657 5.219 11.657 11.656Zm-17.27 2.694a9.574 9.574 0 0 0 12.05 0l-1.358-1.678a7.416 7.416 0 0 1-9.334 0l-1.358 1.678Zm1.463-3.694v-2.916h2.158v2.916h-2.158Zm6.698-2.916v2.916h2.158v-2.916h-2.159Z"/><path d="M48.126 22.15c.988 0 1.795.26 2.42.78.632.515.948 1.372.948 2.57v6.44h-2.561v-5.816c0-.503-.068-.89-.202-1.158-.246-.491-.714-.737-1.404-.737-.848 0-1.43.36-1.745 1.079-.164.38-.246.866-.246 1.456v5.176h-2.491v-9.544h2.412v1.394c.322-.49.626-.845.912-1.061.515-.386 1.167-.58 1.957-.58ZM57.381 30.177c.731 0 1.292-.26 1.684-.781.392-.52.588-1.26.588-2.22 0-.959-.196-1.695-.588-2.21-.392-.52-.953-.78-1.684-.78s-1.295.26-1.693.78c-.392.514-.588 1.251-.588 2.21 0 .96.196 1.7.588 2.22.398.52.962.78 1.693.78Zm4.895-3c0 1.403-.404 2.605-1.21 3.605-.808.994-2.033 1.491-3.676 1.491-1.644 0-2.869-.497-3.676-1.491-.807-1-1.21-2.202-1.21-3.606 0-1.38.403-2.576 1.21-3.587.807-1.012 2.032-1.518 3.676-1.518 1.643 0 2.868.506 3.675 1.518.808 1.011 1.211 2.207 1.211 3.587ZM62.373 24.247v-1.781h1.334v-2.667h2.473v2.667h1.553v1.78H66.18V29.3c0 .392.05.638.15.737.099.094.403.14.912.14h.237l.254-.017v1.869l-1.184.043c-1.181.041-1.989-.163-2.421-.614-.281-.286-.421-.728-.421-1.324v-5.886h-1.334ZM77.39 22.168c1.257 0 2.24.453 2.947 1.36.713.906 1.07 2.075 1.07 3.508 0 1.485-.35 2.717-1.052 3.693-.702.977-1.682 1.465-2.94 1.465-.789 0-1.423-.158-1.903-.474-.286-.187-.596-.514-.93-.982v1.202h-2.447V19.027h2.491v4.597c.316-.445.664-.784 1.044-1.018.45-.292 1.024-.439 1.72-.439Zm-.64 7.965c.642 0 1.142-.26 1.5-.781.356-.52.534-1.205.534-2.053 0-.678-.087-1.24-.263-1.684-.333-.842-.947-1.263-1.842-1.263-.906 0-1.53.412-1.868 1.237-.176.438-.264 1.006-.264 1.702 0 .818.182 1.497.544 2.035.363.538.916.807 1.658.807ZM82.873 33.773l.316.018c.245.011.48.003.702-.027.222-.029.409-.096.561-.201.146-.1.28-.307.404-.623.128-.316.18-.509.157-.58l-3.509-9.982h2.781l2.088 7.053 1.974-7.053h2.658l-3.281 9.404c-.632 1.813-1.132 2.936-1.5 3.368-.368.439-1.105.658-2.21.658-.223 0-.401-.003-.536-.008-.134 0-.336-.01-.605-.027v-2ZM97.537 27.054h3.281l-1.614-5.088-1.667 5.088Zm.167-8.044h3.053l4.579 12.93h-2.93l-.834-2.658h-4.763l-.895 2.658H93.09l4.614-12.93ZM110.323 31.94h-2.684V19.01h2.684v12.93Z"/><path d="M106.046 19.01h5.685v2.199h-5.685v-2.2ZM106.046 29.743h5.685v2.2h-5.685v-2.2ZM42.877 9.653l1.013 4.149 1.027-4.149h.993l1.032 4.124 1.076-4.124h.885l-1.529 5.264h-.919l-1.071-4.074-1.037 4.074h-.92L41.91 9.653h.968ZM49.667 9.653h.841v.91c.069-.177.237-.392.506-.644a1.308 1.308 0 0 1 1.013-.379l.201.02v.934a1.3 1.3 0 0 0-.29-.025c-.445 0-.788.144-1.027.433-.24.285-.359.614-.359.988v3.027h-.885V9.653ZM52.894 9.678h.9v5.24h-.9v-5.24Zm0-1.981h.9V8.7h-.9V7.697ZM55.212 8.184h.894v1.47h.84v.722h-.84v3.435c0 .184.063.307.187.369.07.036.184.054.344.054h.138a5.49 5.49 0 0 0 .172-.015v.698c-.102.03-.208.051-.32.064-.108.013-.226.02-.353.02-.413 0-.693-.105-.84-.315-.148-.213-.222-.488-.222-.825v-3.485h-.713v-.723h.713v-1.47ZM57.913 8.184h.894v1.47h.84v.722h-.84v3.435c0 .184.063.307.187.369.069.036.184.054.344.054h.138c.049-.003.106-.008.172-.015v.698c-.102.03-.208.051-.32.064-.108.013-.226.02-.354.02-.412 0-.692-.105-.84-.315-.147-.213-.221-.488-.221-.825v-3.485H57.2v-.723h.713v-1.47ZM62.629 9.535c.373 0 .736.089 1.086.266.35.173.618.4.801.678.177.265.295.575.354.929.053.242.079.63.079 1.16H61.09c.016.534.142.963.378 1.288.236.32.601.481 1.096.481.462 0 .83-.152 1.106-.457a1.54 1.54 0 0 0 .334-.614h.87c-.023.193-.1.41-.23.649-.129.236-.273.429-.433.58a2.06 2.06 0 0 1-.998.53 3.027 3.027 0 0 1-.723.08 2.22 2.22 0 0 1-1.666-.714c-.455-.478-.683-1.146-.683-2.005 0-.845.23-1.532.688-2.06.459-.527 1.058-.79 1.799-.79Zm1.41 2.33c-.035-.383-.119-.69-.25-.92-.242-.425-.647-.638-1.214-.638-.406 0-.747.147-1.022.442-.276.292-.421.664-.438 1.116h2.925ZM65.94 9.653h.84v.747c.249-.308.513-.529.791-.663a2.11 2.11 0 0 1 .93-.202c.746 0 1.25.26 1.513.782.144.285.216.693.216 1.224v3.376h-.9V11.6c0-.322-.047-.58-.142-.777-.157-.328-.442-.492-.855-.492-.21 0-.382.022-.516.064a1.33 1.33 0 0 0-.639.433 1.327 1.327 0 0 0-.29.54 3.721 3.721 0 0 0-.064.792v2.757h-.885V9.653ZM74.074 7.672h.86v2.62a1.938 1.938 0 0 1 1.568-.776c.656 0 1.186.226 1.593.678.41.449.614 1.112.614 1.99 0 .833-.202 1.524-.605 2.075-.403.55-.961.825-1.676.825-.4 0-.737-.096-1.012-.29-.164-.114-.34-.298-.526-.55v.673h-.816V7.672Zm2.3 6.63c.479 0 .836-.19 1.072-.57.239-.38.359-.88.359-1.503 0-.554-.12-1.013-.36-1.377-.235-.363-.584-.545-1.046-.545-.403 0-.757.149-1.062.447-.301.298-.452.79-.452 1.475 0 .495.062.896.187 1.204.233.58.667.87 1.302.87ZM82.934 9.653h.978c-.125.338-.402 1.108-.83 2.31-.322.905-.59 1.642-.807 2.212-.511 1.344-.872 2.163-1.081 2.458-.21.295-.57.442-1.082.442-.124 0-.22-.005-.29-.015a2.35 2.35 0 0 1-.245-.054V16.2c.154.043.265.069.334.079.069.01.13.015.182.015.163 0 .283-.028.358-.084a.704.704 0 0 0 .197-.197 25.125 25.125 0 0 0 .398-.944L79.1 9.654h1.003l1.41 4.286 1.42-4.286ZM87.279 7.672h.885v2.694c.21-.265.398-.452.565-.56.285-.187.64-.28 1.066-.28.764 0 1.281.267 1.553.8.148.292.222.697.222 1.215v3.376h-.91V11.6c0-.387-.049-.67-.147-.85-.16-.29-.462-.433-.904-.433-.367 0-.7.126-.998.378-.298.252-.448.73-.448 1.43v2.792h-.884V7.672ZM93.666 9.653v3.495c0 .269.043.488.128.659.157.314.45.471.88.471.616 0 1.035-.275 1.258-.825.121-.295.182-.7.182-1.214V9.653h.884v5.264h-.835l.01-.776c-.115.2-.258.368-.428.506-.337.275-.747.413-1.229.413-.75 0-1.261-.25-1.533-.752-.148-.269-.221-.628-.221-1.077V9.653h.904ZM98.284 9.653h.875v.747c.21-.258.4-.447.57-.565.292-.2.622-.3.993-.3.419 0 .757.103 1.012.31.144.118.275.292.393.52.197-.28.428-.489.693-.623.266-.138.564-.207.895-.207.708 0 1.189.256 1.445.767.138.275.206.646.206 1.11v3.505h-.919v-3.656c0-.351-.088-.592-.265-.723a1.031 1.031 0 0 0-.639-.197c-.347 0-.647.117-.899.35-.25.232-.374.62-.374 1.164v3.062h-.899v-3.435c0-.357-.043-.618-.128-.782-.135-.246-.385-.368-.752-.368-.335 0-.64.129-.915.388-.271.259-.407.727-.407 1.405v2.792h-.885V9.653ZM107.247 13.517c0 .255.093.457.28.604.187.147.408.221.663.221.312 0 .613-.072.905-.216.491-.24.737-.63.737-1.175v-.712a1.507 1.507 0 0 1-.418.172c-.17.046-.337.078-.501.098l-.536.069c-.321.042-.562.11-.722.201-.272.154-.408.4-.408.738Zm2.143-1.79c.203-.026.339-.111.408-.255a.782.782 0 0 0 .059-.34c0-.3-.109-.519-.325-.653-.213-.138-.519-.206-.919-.206-.462 0-.79.124-.983.373-.108.138-.179.342-.211.614h-.826c.016-.648.226-1.099.629-1.351.406-.256.877-.384 1.411-.384.619 0 1.122.118 1.509.354.383.236.575.603.575 1.101v3.033c0 .092.018.165.054.221.039.056.119.084.241.084.039 0 .083-.002.132-.005a3.89 3.89 0 0 0 .158-.025v.654c-.138.04-.243.064-.315.074-.072.01-.17.014-.295.014-.305 0-.526-.108-.663-.324a1.244 1.244 0 0 1-.153-.487c-.18.236-.439.441-.776.615-.338.173-.71.26-1.116.26-.488 0-.888-.147-1.199-.442a1.49 1.49 0 0 1-.462-1.116c0-.488.152-.867.457-1.135.304-.269.704-.434 1.199-.497l1.411-.177ZM112.071 9.653h.84v.747c.249-.308.513-.529.792-.663.278-.135.588-.202.929-.202.747 0 1.251.26 1.513.782.145.285.217.693.217 1.224v3.376h-.9V11.6c0-.322-.047-.58-.142-.777-.158-.328-.443-.492-.855-.492-.21 0-.382.022-.517.064a1.334 1.334 0 0 0-.639.433 1.333 1.333 0 0 0-.29.54 3.773 3.773 0 0 0-.063.792v2.757h-.885V9.653Z"/></svg>