<svg width="131" height="42" xmlns="http://www.w3.org/2000/svg"><path stroke="#acacac" d="M.5.602h115.144c8.008 0 14.5 6.491 14.5 14.5v26.173H15c-8.008 0-14.5-6.491-14.5-14.5V.603Z"/><path fill="#fff" fill-rule="evenodd" d="M32.73 21.277a9.498 9.498 0 1 1-18.995 0 9.498 9.498 0 0 1 18.996 0Zm2.159 0c0 6.438-5.219 11.656-11.656 11.656-6.438 0-11.656-5.218-11.656-11.656 0-6.437 5.219-11.656 11.656-11.656s11.656 5.219 11.656 11.656Zm-17.27 2.694a9.574 9.574 0 0 0 12.05 0l-1.358-1.678a7.416 7.416 0 0 1-9.334 0l-1.359 1.678Zm1.462-3.694v-2.916h2.159v2.916H19.08Zm6.698-2.916v2.916h2.159v-2.916h-2.159Z"/><path fill="#fff" d="M47.77 22.15c.987 0 1.795.26 2.42.78.632.515.948 1.372.948 2.57v6.44h-2.562v-5.816c0-.503-.067-.89-.202-1.158-.245-.491-.713-.737-1.403-.737-.848 0-1.43.36-1.746 1.079-.163.38-.245.866-.245 1.456v5.176h-2.492v-9.544h2.413v1.394c.321-.49.625-.845.912-1.061.515-.386 1.167-.58 1.956-.58ZM57.025 30.177c.73 0 1.292-.26 1.684-.781.392-.52.588-1.26.588-2.22 0-.959-.196-1.695-.588-2.21-.392-.52-.953-.78-1.684-.78s-1.296.26-1.693.78c-.392.514-.588 1.251-.588 2.21 0 .96.196 1.7.588 2.22.397.52.962.78 1.693.78Zm4.895-3c0 1.403-.404 2.605-1.211 3.605-.807.994-2.032 1.491-3.676 1.491-1.643 0-2.868-.497-3.675-1.491-.807-1-1.21-2.202-1.21-3.606 0-1.38.403-2.576 1.21-3.587.807-1.012 2.032-1.518 3.675-1.518 1.644 0 2.869.506 3.676 1.518.807 1.011 1.21 2.207 1.21 3.587ZM62.017 24.247v-1.781h1.333v-2.667h2.474v2.667h1.553v1.78h-1.553V29.3c0 .392.05.638.149.737.1.094.404.14.912.14h.237l.255-.017v1.869l-1.185.043c-1.181.041-1.988-.163-2.42-.614-.282-.286-.422-.728-.422-1.324v-5.886h-1.333ZM77.033 22.168c1.257 0 2.24.453 2.948 1.36.713.906 1.07 2.075 1.07 3.508 0 1.485-.351 2.717-1.053 3.693-.702.977-1.681 1.465-2.939 1.465-.789 0-1.424-.158-1.903-.474-.287-.187-.597-.514-.93-.982v1.202h-2.447V19.027h2.49v4.597c.317-.445.665-.784 1.045-1.018.45-.292 1.023-.439 1.72-.439Zm-.64 7.965c.643 0 1.143-.26 1.5-.781.357-.52.535-1.205.535-2.053 0-.678-.088-1.24-.263-1.684-.334-.842-.948-1.263-1.842-1.263-.907 0-1.53.412-1.869 1.237-.175.438-.263 1.006-.263 1.702 0 .818.181 1.497.544 2.035.362.538.915.807 1.658.807ZM82.516 33.773l.316.018c.246.011.48.003.702-.027.222-.029.41-.096.561-.201.147-.1.281-.307.404-.623.129-.316.181-.509.158-.58l-3.509-9.982h2.78l2.089 7.053 1.973-7.053h2.658l-3.28 9.404c-.632 1.813-1.132 2.936-1.5 3.368-.369.439-1.106.658-2.211.658-.222 0-.4-.003-.535-.008-.135 0-.337-.01-.606-.027v-2ZM97.18 27.054h3.282l-1.615-5.088-1.666 5.088Zm.167-8.044h3.053l4.579 12.93h-2.93l-.833-2.658h-4.763l-.895 2.658h-2.825l4.614-12.93ZM109.967 31.94h-2.684V19.01h2.684v12.93Z"/><path fill="#fff" d="M105.69 19.01h5.684v2.199h-5.684v-2.2ZM105.69 29.743h5.684v2.2h-5.684v-2.2ZM42.52 9.79l1.013 4.148L44.56 9.79h.993l1.033 4.124 1.076-4.124h.885l-1.529 5.264h-.92l-1.07-4.075-1.038 4.075h-.919L41.553 9.79h.968ZM49.311 9.79h.84v.909c.07-.177.238-.392.507-.644a1.308 1.308 0 0 1 1.012-.378l.202.02v.933a1.323 1.323 0 0 0-.29-.024c-.446 0-.788.144-1.027.432-.24.285-.36.614-.36.988v3.028h-.884V9.79ZM52.538 9.814h.9v5.24h-.9v-5.24Zm0-1.98h.9v1.002h-.9V7.833ZM54.855 8.32h.895v1.47h.84v.722h-.84v3.436c0 .183.062.306.187.368.069.037.183.055.344.055h.138l.172-.015v.698c-.102.03-.209.05-.32.064-.108.013-.226.02-.354.02-.413 0-.693-.105-.84-.315-.148-.213-.221-.489-.221-.826v-3.485h-.713V9.79h.712V8.32ZM57.556 8.32h.895v1.47h.84v.722h-.84v3.436c0 .183.062.306.187.368.069.037.183.055.344.055h.137l.172-.015v.698c-.101.03-.208.05-.319.064-.108.013-.226.02-.354.02-.413 0-.693-.105-.84-.315-.148-.213-.222-.489-.222-.826v-3.485h-.712V9.79h.712V8.32ZM62.273 9.672c.373 0 .735.088 1.086.265.35.174.617.4.8.678.178.266.296.575.355.93.052.242.079.629.079 1.16h-3.859c.017.534.143.963.379 1.287.236.321.6.482 1.096.482.462 0 .83-.153 1.105-.457.158-.177.27-.382.335-.615h.87c-.023.194-.1.41-.231.65a2.27 2.27 0 0 1-.433.58c-.268.261-.601.438-.998.53a3.032 3.032 0 0 1-.722.079 2.22 2.22 0 0 1-1.666-.713c-.456-.479-.684-1.147-.684-2.005 0-.846.23-1.532.689-2.06.458-.527 1.058-.791 1.799-.791Zm1.41 2.33c-.036-.384-.12-.69-.25-.92-.243-.426-.648-.639-1.215-.639-.406 0-.747.148-1.022.443-.275.291-.42.663-.437 1.116h2.924ZM65.583 9.79h.84v.747c.25-.308.513-.53.792-.664a2.11 2.11 0 0 1 .929-.201c.747 0 1.251.26 1.514.781.144.285.216.693.216 1.224v3.377h-.9v-3.318c0-.321-.047-.58-.142-.777-.157-.327-.442-.491-.855-.491-.21 0-.382.021-.517.064a1.33 1.33 0 0 0-.638.432 1.325 1.325 0 0 0-.29.541 3.721 3.721 0 0 0-.064.791v2.758h-.885V9.79ZM73.718 7.809h.86v2.62a1.937 1.937 0 0 1 1.568-.777c.655 0 1.186.226 1.592.678.41.45.615 1.113.615 1.991 0 .832-.202 1.524-.605 2.074-.403.55-.962.826-1.676.826-.4 0-.737-.097-1.013-.29-.163-.115-.339-.298-.525-.55v.673h-.816V7.809Zm2.3 6.63c.478 0 .835-.19 1.071-.57.24-.38.36-.881.36-1.504 0-.553-.12-1.012-.36-1.376-.236-.364-.585-.546-1.046-.546-.404 0-.758.15-1.062.448-.302.298-.452.79-.452 1.474 0 .495.062.896.186 1.204.233.58.667.87 1.303.87ZM82.577 9.79h.978c-.124.337-.401 1.107-.83 2.31-.322.904-.59 1.641-.806 2.212-.512 1.343-.872 2.162-1.082 2.457-.21.295-.57.443-1.081.443-.125 0-.221-.005-.29-.015a2.355 2.355 0 0 1-.246-.054v-.806c.154.042.266.068.334.078.07.01.13.015.182.015.164 0 .284-.028.36-.084a.702.702 0 0 0 .196-.196 24.995 24.995 0 0 0 .398-.944L78.743 9.79h1.003l1.41 4.286 1.421-4.286ZM86.922 7.809h.885v2.693c.21-.265.398-.452.565-.56.285-.187.64-.28 1.067-.28.763 0 1.281.267 1.553.801.147.292.221.696.221 1.214v3.377h-.91v-3.318c0-.387-.048-.67-.147-.85-.16-.289-.462-.433-.904-.433-.367 0-.7.126-.998.379-.298.252-.447.729-.447 1.43v2.792h-.885V7.809ZM93.31 9.79v3.494c0 .269.042.489.127.659.158.315.45.472.88.472.616 0 1.036-.275 1.258-.826.122-.295.182-.7.182-1.214V9.79h.885v5.264h-.836l.01-.777c-.114.2-.257.369-.427.506-.338.276-.747.413-1.23.413-.75 0-1.26-.25-1.533-.752-.147-.268-.22-.627-.22-1.076V9.79h.904ZM97.927 9.79h.875v.747c.21-.26.4-.448.57-.565.292-.2.623-.3.993-.3.42 0 .757.103 1.013.31.144.117.275.291.393.52.197-.281.428-.49.693-.624.265-.137.564-.206.895-.206.707 0 1.189.255 1.445.766.137.276.206.646.206 1.111v3.505h-.919v-3.657c0-.35-.089-.591-.265-.723a1.032 1.032 0 0 0-.639-.196c-.348 0-.648.116-.9.349-.249.232-.373.62-.373 1.165v3.062h-.9v-3.436c0-.357-.043-.617-.128-.781-.134-.246-.385-.369-.752-.369-.334 0-.639.13-.914.388-.272.26-.408.728-.408 1.406v2.792h-.885V9.79ZM106.89 13.653a.73.73 0 0 0 .28.604c.187.148.408.222.664.222.311 0 .613-.072.904-.217.492-.239.738-.63.738-1.174v-.713a1.53 1.53 0 0 1-.418.172 3.583 3.583 0 0 1-.502.098l-.535.07c-.321.042-.562.109-.723.2-.272.155-.408.4-.408.738Zm2.143-1.79c.203-.025.339-.11.408-.255a.782.782 0 0 0 .059-.339c0-.301-.108-.52-.324-.654-.213-.137-.52-.206-.919-.206-.462 0-.79.124-.983.374-.109.137-.179.342-.212.614h-.826c.017-.649.227-1.1.63-1.352.406-.255.876-.383 1.41-.383.62 0 1.122.118 1.509.354.384.236.575.603.575 1.1v3.033c0 .092.018.166.054.222.04.055.12.083.241.083.039 0 .084-.002.133-.005.049-.006.101-.014.157-.024v.653a2.48 2.48 0 0 1-.314.074c-.073.01-.171.015-.295.015-.305 0-.526-.108-.664-.325a1.246 1.246 0 0 1-.152-.486c-.18.236-.439.44-.777.614a2.4 2.4 0 0 1-1.116.26c-.488 0-.888-.147-1.199-.442a1.49 1.49 0 0 1-.462-1.115c0-.489.152-.867.457-1.136.305-.268.705-.434 1.2-.496l1.41-.177ZM111.714 9.79h.841v.747c.249-.308.513-.53.791-.664.279-.134.588-.201.929-.201.747 0 1.252.26 1.514.781.144.285.216.693.216 1.224v3.377h-.899v-3.318c0-.321-.048-.58-.143-.777-.157-.327-.442-.491-.855-.491-.21 0-.382.021-.516.064a1.334 1.334 0 0 0-.639.432 1.333 1.333 0 0 0-.29.541c-.043.184-.064.447-.064.791v2.758h-.885V9.79Z"/></svg>