<svg height="72" width="144" viewBox="0 0 144 72" xmlns="http://www.w3.org/2000/svg"><path d="M0 0h144v72H0z"/><path d="M60.51 50.71c-.72 0-1.42-.11-2.1-.33-.69-.21-1.28-.57-1.78-1.07-.51-.51-.87-1.1-1.08-1.78-.22-.69-.33-1.39-.33-2.11s.11-1.42.33-2.1c.21-.69.57-1.28 1.08-1.78.5-.51 1.09-.87 1.78-1.08.68-.22 1.38-.32 2.1-.32s1.42.1 2.1.32c.69.21 1.28.57 1.78 1.08.51.5.87 1.09 1.08 1.78.22.68.33 1.38.33 2.1s-.11 1.42-.33 2.11c-.21.68-.57 1.27-1.08 1.78-.5.5-1.09.86-1.78 1.07-.68.22-1.38.33-2.1.33zm0-18.88c-.72 0-1.42-.11-2.1-.33-.69-.21-1.28-.57-1.78-1.07-.51-.51-.87-1.1-1.08-1.78-.22-.69-.33-1.39-.33-2.11s.11-1.42.33-2.1c.21-.68.57-1.28 1.08-1.78.5-.51 1.09-.86 1.78-1.08.68-.22 1.38-.32 2.1-.32s1.42.1 2.1.32c.69.22 1.28.57 1.78 1.08.51.5.87 1.1 1.08 1.78.22.68.33 1.38.33 2.1s-.11 1.42-.33 2.11c-.21.68-.57 1.27-1.08 1.78-.5.5-1.09.86-1.78 1.07-.68.22-1.38.33-2.1.33zm21.52 29.5-4.01-3.12c2.12-2.52 3.64-5.04 4.53-7.56-.82-.1-1.59-.4-2.29-.89-.7-.48-1.2-1.12-1.51-1.91-.3-.79-.46-1.6-.46-2.43 0-.72.11-1.42.33-2.1.21-.69.57-1.28 1.08-1.78.5-.51 1.09-.87 1.78-1.08.68-.22 1.38-.32 2.1-.32s1.42.1 2.1.32c.69.21 1.28.57 1.78 1.08.51.5.87 1.09 1.08 1.78.22.68.33 1.38.33 2.1v.27c-.08 5.22-2.32 10.43-6.75 15.64zm1.46-29.5c-.72 0-1.42-.11-2.1-.33-.69-.21-1.28-.57-1.78-1.07-.51-.51-.87-1.1-1.08-1.78-.22-.69-.33-1.39-.33-2.11s.11-1.42.33-2.1c.21-.68.57-1.28 1.08-1.78.5-.51 1.09-.86 1.78-1.08.68-.22 1.38-.32 2.1-.32s1.42.1 2.1.32c.69.22 1.28.57 1.78 1.08.51.5.87 1.1 1.08 1.78.22.68.33 1.38.33 2.1s-.11 1.42-.33 2.11c-.21.68-.57 1.27-1.08 1.78-.5.5-1.09.86-1.78 1.07-.68.22-1.38.33-2.1.33z" fill="#fff"/></svg>
