<svg version="1.2" baseProfile="tiny-ps" height="1024" width="1024" xmlns="http://www.w3.org/2000/svg" viewBox="0 0 1024 1024"><title>Seirdy</title><path d="m0 0h1024v1024h-1024z"/><path d="M348.4 721.7q-15.4 0-30-4.6t-25.3-15.4q-10.8-10.8-15.4-25.3-4.6-14.6-4.6-30t4.6-30q4.6-14.6 15.4-25.3 10.8-10.8 25.3-15.4 14.6-4.6 30-4.6t30 4.6q14.6 4.6 25.3 15.4 10.8 10.8 15.4 25.3 4.6 14.6 4.6 30t-4.6 30q-4.6 14.6-15.4 25.3-10.8 10.8-25.3 15.4-14.6 4.6-30 4.6zm0-268.8q-15.4 0-30-4.6t-25.3-15.4q-10.8-10.8-15.4-25.3-4.6-14.6-4.6-30t4.6-30q4.6-14.6 15.4-25.3 10.8-10.8 25.3-15.4 14.6-4.6 30-4.6t30 4.6q14.6 4.6 25.3 15.4 10.8 10.8 15.4 25.3 4.6 14.6 4.6 30t-4.6 30q-4.6 14.6-15.4 25.3-10.8 10.8-25.3 15.4-14.6 4.6-30 4.6zM654.8 873l-58.4-44.5q45.3-53.8 64.5-107.5-17.7-2.3-33-12.3-14.6-10.8-21.5-27.6-6.1-16.9-6.1-34.6 0-15.4 4.6-30t15.4-25.3q10.8-10.8 25.3-15.4 14.6-4.6 30-4.6t30 4.6q14.6 4.6 25.3 15.4 10.8 10.8 15.4 25.3 4.6 14.6 4.6 30v3.8q-1.5 111.4-96 222.7zm20.7-420.1q-15.4 0-30-4.6t-25.3-15.4q-10.8-10.8-15.4-25.3-4.6-14.6-4.6-30t4.6-30q4.6-14.6 15.4-25.3 10.8-10.8 25.3-15.4 14.6-4.6 30-4.6t30 4.6q14.6 4.6 25.3 15.4 10.8 10.8 15.4 25.3 4.6 14.6 4.6 30t-4.6 30q-4.6 14.6-15.4 25.3-10.8 10.8-25.3 15.4-14.6 4.6-30 4.6z" fill="#fff"/></svg>
