<svg height="1024" width="1024" xmlns="http://www.w3.org/2000/svg"><rect height="100%" width="100%"/><path d="M379.9 681.3q-12.4 0-24.2-3.7-11.8-3.7-20.5-12.4t-12.4-20.5q-3.7-11.8-3.7-24.2 0-12.4 3.7-24.2 3.7-11.8 12.4-20.5t20.5-12.4q11.8-3.7 24.2-3.7 12.4 0 24.2 3.7 11.8 3.7 20.5 12.4t12.4 20.5q3.7 11.8 3.7 24.2 0 12.4-3.7 24.2-3.7 11.8-12.4 20.5t-20.5 12.4q-11.8 3.7-24.2 3.7zm0-217q-12.4 0-24.2-3.7-11.8-3.7-20.5-12.4t-12.4-20.5q-3.7-11.8-3.7-24.2 0-12.4 3.7-24.2 3.7-11.8 12.4-20.5t20.5-12.4q11.8-3.7 24.2-3.7 12.4 0 24.2 3.7 11.8 3.7 20.5 12.4t12.4 20.5q3.7 11.8 3.7 24.2 0 12.4-3.7 24.2-3.7 11.8-12.4 20.5t-20.5 12.4q-11.8 3.7-24.2 3.7zm247.4 339.1l-47.1-36q36.6-43.4 52.1-86.8-14.3-1.9-26.7-9.9-11.8-8.7-17.4-22.3-5-13.6-5-27.9 0-12.4 3.7-24.2 3.7-11.8 12.4-20.5t20.5-12.4q11.8-3.7 24.2-3.7 12.4 0 24.2 3.7 11.8 3.7 20.5 12.4t12.4 20.5q3.7 11.8 3.7 24.2v3.1q-1.2 89.9-77.5 179.8zM644 464.3q-12.4 0-24.2-3.7-11.8-3.7-20.5-12.4t-12.4-20.5q-3.7-11.8-3.7-24.2 0-12.4 3.7-24.2 3.7-11.8 12.4-20.5t20.5-12.4q11.8-3.7 24.2-3.7 12.4 0 24.2 3.7 11.8 3.7 20.5 12.4t12.4 20.5q3.7 11.8 3.7 24.2 0 12.4-3.7 24.2-3.7 11.8-12.4 20.5t-20.5 12.4q-11.8 3.7-24.2 3.7z" fill="#fff"/></svg>
