<svg xmlns="http://www.w3.org/2000/svg" width="851" height="300"><path fill="#fff" d="M0 0h851v300H0Z"/><path fill="#636" d="m60.995 20.475-59.31 258.77h573.147c-17.001-1.483-30.424-7.45-38.421-18.33-1.484-2.013-2.71-4.18-3.784-6.448a223 223 0 0 1-1.971-5.063c-1.706-5.423-2.386-11.44-2.079-17.852.853-17.87 9.239-39.128 23.767-61.389 15.433-23.656 37.8-48.45 65.492-71.46 6.208-5.153 12.626-10.242 19.344-15.187 8.305-6.11 16.673-11.737 25.046-17 30.848-19.42 61.62-33.01 88.886-39.913-26.056 8.5-55.329 22.932-84.25 42.578-1.04.702-2.067 1.422-3.09 2.132-16.047 11.118-30.584 22.926-43.271 34.85-40.824 38.385-62.402 78.16-52.596 101.463a29 29 0 0 0 2.504 4.583c10.539 15.5 36.657 18.18 69.755 9.858 2.251-.563 4.502-1.2 6.821-1.865 10.573-3.052 21.798-7.175 33.36-12.257 2.779-1.228 5.588-2.49 8.419-3.836.29-.137.563-.273.852-.427 36.493-18.131 64.538-38.995 70.608-51.53 1.33-2.726 1.65-5.052.746-6.874-4.331-8.782-34.64-2.85-71.354 13.055a382 382 0 0 0-8.952 3.997 285 285 0 0 1 7.62-6.821c4.161-3.584 8.469-7.09 13.056-10.551a260 260 0 0 1 21.582-14.708c33.457-25.241 50.371-49.118 46.841-57.978-.665-1.67-2.08-2.818-4.263-3.517-6.975-2.219-19.704.429-35.17 6.768-12.756 5.231-27.406 12.99-42.259 22.647l-2.025 1.333-.373.213-7.14 4.742 4.103-7.513c6.087-11.144 16.004-22.771 28.35-33.572 9.054-7.897 19.399-15.338 30.534-21.849 4.212-2.466 8.418-4.756 12.63-6.82a182 182 0 0 1 12.842-5.65c12.237-4.839 25.68-10.95 35.867-11.75-.928 0-30.378 3.171-30.378 3.171H60.995m461.987.373c-1.671 25.505 3.274 62.863 14.495 104.34a579 579 0 0 0 6.554 22.488 562 562 0 0 0 4.583 13.855c-.92 1.354-1.848 2.7-2.718 4.05-14 21.455-22.183 41.732-24.246 59.364-5.918-19.816-10.372-41.52-12.896-64.534a393 393 0 0 1-1.652-19.556c-2.763-46.797 3.347-89.219 15.88-120.007M243.588 54.047c.32-.008.634 0 .96 0h63.04c5.389 0 9.556 1.01 12.523 3.038 2.95 2.039 4.056 4.677 3.357 7.886l-7.513 33.945h-22.222l7.3-33.039H245.4l-20.09 90.804-7.247 32.88h55.58l.054-.213 11.137-50.305h-26.112l2.505-11.35h48.333l-13.855 62.773c-.188.894-.516 1.704-.96 2.505-1.142 2.08-3.135 3.863-5.914 5.33-3.854 2.028-8.467 3.036-13.856 3.036h-62.987c-5.388 0-9.556-1.008-12.523-3.037-2.95-2.03-4.073-4.62-3.357-7.834l27.764-125.495c.716-3.209 2.95-5.847 6.82-7.886.137-.074.29-.09.427-.16 3.533-1.77 7.68-2.765 12.47-2.878Zm98.798 0h79.347c5.32 0 9.502 1.01 12.47 3.038 2.984 2.039 4.126 4.677 3.41 7.886L422.8 131.902c-.7 3.189-2.986 5.79-6.874 7.833-3.888 2.05-8.465 3.091-13.802 3.091h-57.659l-11.137 50.252-1.812 8.26h-21.742l1.652-7.46zm109.615 0h21.742l-24.62 111.214-5.382 24.3h52.01a309 309 0 0 0 1.866 11.776h-78.229l6.182-27.923zm-90.484 11.83-14.442 65.12h54.195l14.388-65.12zM245.953 219.57c.213-.007.426 0 .64 0 2.524 0 4.728.443 6.501 1.28 1.893.886 3.247 2.203 3.997 3.943.733 1.688.925 3.604.533 5.701l-.16.8h-6.235l.053-.746c.162-1.466-.02-2.618-.585-3.41-.074-.1-.181-.231-.267-.32a3.5 3.5 0 0 0-.533-.427c-.872-.55-2.237-.852-3.997-.852-2.336 0-4.082.407-5.275 1.225-1.16.802-1.893 1.697-2.132 2.771-.239 1.092.153 1.665.426 1.972l.054.053c.345.294 1.545.985 5.275 1.865 3.377.819 5.613 1.554 6.875 2.185 1.91.972 3.244 2.232 3.943 3.783.7 1.535.853 3.332.426 5.276-.426 1.893-1.392 3.639-2.824 5.276-1.415 1.637-3.216 2.933-5.382 3.837a18.2 18.2 0 0 1-6.928 1.385c-3.07 0-5.534-.465-7.46-1.385-2.012-.955-3.464-2.462-4.317-4.424-.818-1.91-.993-4.077-.533-6.447l.16-.747h6.129l-.054.747c-.153 1.415-.002 2.557.373 3.41.358.819 1.04 1.497 2.132 2.025 1.16.563 2.609.852 4.263.852 1.484 0 2.84-.249 4.05-.692 1.193-.426 2.142-.99 2.824-1.705.665-.716 1.055-1.473 1.226-2.292.17-.733.13-1.353-.16-1.865-.324-.545-.966-1.03-1.972-1.439l-5.222-1.545c-2.916-.734-4.88-1.432-6.022-2.132-1.552-.92-2.67-2.101-3.25-3.517-.58-1.398-.642-2.948-.267-4.636.393-1.808 1.264-3.527 2.612-5.062 1.364-1.552 3.124-2.77 5.222-3.57a18.3 18.3 0 0 1 5.861-1.173Zm55.954.107c.337-.026.654 0 1.012 0l3.837.426 1.279.107-1.865 4.742-.373.746-2.93-.266c-.866 0-1.502.134-1.92.426-.027.021-.08.085-.106.107a2 2 0 0 0-.213.213c-.257.337-.57.938-.8 2.025 0 0-.11.46-.213.853h4.583l-1.172 5.275h-4.476c-.341 1.535-4.53 20.304-4.53 20.304h-6.182s4.018-18.035 4.53-20.304h-3.57l1.172-5.275h3.517c.17-.733.426-1.652.426-1.652.376-1.706.768-2.931 1.28-3.784a8.05 8.05 0 0 1 2.93-2.877c1.026-.596 2.322-.952 3.784-1.066Zm14.761.266-2.025 9.113h3.997l-1.173 5.275h-3.996c-.324 1.467-2.878 12.843-2.878 12.843s-.213 1.366-.213 1.758v.107c.001.002.05-.002.053 0l.64.053 2.93-.213-.32 4.742.054.853-4.21.48c-1.671 0-2.897-.273-3.784-.853-.937-.614-1.483-1.428-1.705-2.451-.034-.188-.106-.46-.106-.853 0-.767.145-2.065.64-4.316 0 0 2.24-10.036 2.717-12.15h-2.93l1.171-5.276h2.931c.273-1.228 1.226-5.435 1.226-5.435l4.956-2.611zm-196.37.213h23.98l-1.332 5.969h-17.532c-.273 1.21-1.366 6.113-1.758 7.887h15.187l-1.332 5.968h-15.188c-.324 1.484-3.25 14.654-3.25 14.654h-6.448zm32.134 8.42c.24-.03.503 0 .746 0 1.534 0 2.952.467 4.316 1.439l.853.586-3.304 5.436-.906-.64a3.9 3.9 0 0 0-2.132-.64c-.648 0-1.25.231-1.865.64a4.7 4.7 0 0 0-1.598 1.759c-.717 1.313-1.241 2.783-1.6 4.37l-2.877 13.108h-6.181l5.702-25.578h5.755s-.198.776-.267 1.065c.273-.204.56-.485.8-.639.826-.493 1.698-.8 2.558-.906m18.331 0c.372-.028.739 0 1.12 0 3.478 0 6.11 1.22 7.832 3.624 1.075 1.551 1.653 3.47 1.653 5.755 0 1.262-.156 2.62-.48 4.103l-.48 1.865h-17.372c-.034.358-.053.742-.053 1.066 0 1.33.273 2.377.852 3.144.276.375.595.713.96.96.686.447 1.573.692 2.61.692 1.263 0 2.371-.348 3.411-1.012.99-.631 1.936-1.64 2.771-3.038h6.608l-.586 1.279c-1.262 2.558-3.023 4.553-5.222 5.969-2.2 1.415-4.828 2.184-7.727 2.184-3.769 0-6.574-1.219-8.313-3.623-1.723-2.354-2.093-5.606-1.173-9.7.921-4.16 2.759-7.485 5.436-9.804 2.4-2.08 5.122-3.235 8.153-3.464Zm27.764 0c.372-.028.738 0 1.118 0 3.48 0 6.112 1.22 7.834 3.624 1.075 1.551 1.652 3.47 1.652 5.755 0 1.245-.156 2.583-.48 4.05l-.48 1.918H190.8c-.019.24-.037.454-.054.693-.013.09.006.226 0 .32v.053c0 .256.036.507.054.746.085.972.339 1.784.799 2.398.088.12.17.267.266.373.781.835 1.887 1.279 3.304 1.279a6.1 6.1 0 0 0 3.41-1.012c.99-.631 1.936-1.64 2.772-3.038h6.66l-.639 1.279c-1.262 2.558-3.022 4.553-5.222 5.968s-4.828 2.185-7.727 2.185c-3.768 0-6.574-1.219-8.313-3.623-1.125-1.535-1.652-3.49-1.652-5.81 0-.357.018-.743.053-1.118.069-.887.205-1.782.427-2.771.92-4.144 2.705-7.486 5.382-9.805 2.4-2.081 5.176-3.235 8.207-3.464m75.616 0c.381-.03.732 0 1.12 0 3.547 0 6.273 1.2 8.046 3.57q2.635 3.556 1.28 9.592c-.7 3.138-1.71 5.673-3.092 7.514-1.38 1.842-3.141 3.347-5.222 4.37-2.063 1.023-4.248 1.545-6.448 1.545-3.615 0-6.307-1.236-8.047-3.623-1.125-1.518-1.705-3.473-1.705-5.81 0-1.26.139-2.601.48-4.102 1.023-4.57 3.112-8.051 6.181-10.285 2.253-1.626 4.742-2.566 7.407-2.77m93.63 0c.449-.027.865 0 1.331 0 2.149 0 3.837.218 5.116.746 1.364.546 2.332 1.317 2.878 2.238.528.87.799 1.938.799 3.251l-.64 3.89-1.172 5.276c-1.006 4.501-1.227 6.19-1.279 6.82-.05.853.028 1.684.267 2.452l.426 1.385h-6.288l-.267-.8c-.102-.374-.072-.851-.106-1.278-1.194.733-2.39 1.384-3.464 1.758-1.586.547-3.231.853-4.903.853-2.898 0-5.045-.754-6.341-2.238-.989-1.091-1.439-2.425-1.439-3.943 0-.58.077-1.181.213-1.812.29-1.296.817-2.496 1.652-3.57.82-1.058 1.787-1.927 2.878-2.558 1.057-.631 2.236-1.079 3.464-1.386l3.784-.64c2.915-.34 5.092-.764 6.66-1.225a3 3 0 0 1 .107-.373c.247-1.097.216-1.922-.053-2.344-.02-.028-.084-.084-.107-.107-.057-.061-.146-.158-.213-.214-.641-.507-1.735-.745-3.197-.745-1.655 0-2.878.27-3.73.8-.836.528-1.61 1.495-2.292 2.877h-6.448l.586-1.28c.768-1.773 1.682-3.244 2.825-4.37 1.142-1.125 2.685-1.997 4.476-2.61a17.8 17.8 0 0 1 4.476-.853m27.017 0c.24-.03.503 0 .746 0 1.551 0 3.005.467 4.37 1.439l.799.586-3.304 5.436-.906-.64c-.665-.426-1.345-.64-2.078-.64-.648 0-1.288.231-1.919.64-.648.427-1.119.991-1.545 1.759a17.5 17.5 0 0 0-1.599 4.37l-2.93 13.108h-6.182l5.702-25.578h5.755s-.145.776-.213 1.065c.272-.204.543-.485.8-.639.812-.493 1.645-.8 2.503-.906m18.278 0c.371-.028.738 0 1.119 0 3.479 0 6.128 1.22 7.833 3.624 1.092 1.551 1.652 3.47 1.652 5.755 0 1.262-.209 2.62-.533 4.103l-.426 1.865h-17.372c-.034.358-.107.742-.107 1.066 0 1.33.29 2.377.853 3.144.087.12.223.267.32.373.056.06.154.158.213.213.762.693 1.8 1.066 3.09 1.066 1.262 0 2.37-.347 3.41-1.012.99-.631 1.92-1.64 2.772-3.038h6.661l-.64 1.28c-1.261 2.557-3.039 4.552-5.222 5.968-2.217 1.415-4.81 2.184-7.727 2.184-3.768 0-6.52-1.219-8.26-3.623-1.722-2.354-2.129-5.606-1.225-9.7.92-4.16 2.705-7.485 5.382-9.804 2.415-2.08 5.179-3.235 8.207-3.464m-93.31.48h6.342s.782 15.178.8 15.4c.255-.543.454-1 .48-1.066l6.98-14.334h5.809s.532 14.995.532 15.08c.17-.306 7.94-15.08 7.94-15.08h6.288l-13.855 25.578h-5.701s-.553-13.87-.587-14.654c-2.353 4.826-7.14 14.654-7.14 14.654h-5.862zm-148.888 4.85c-1.47.06-2.804.59-4.05 1.598-.99.784-1.657 1.86-2.185 3.037h10.498c.018-.187.053-.416.053-.586 0-.972-.173-1.727-.48-2.238-.75-1.228-1.863-1.812-3.517-1.812-.099 0-.222-.005-.32 0m27.763 0c-1.469.06-2.803.59-4.05 1.598-.989.784-1.639 1.86-2.185 3.037h10.498c.018-.187.054-.416.054-.586 0-.972-.156-1.727-.48-2.238-.149-.25-.35-.497-.533-.693-.712-.735-1.692-1.119-2.984-1.119-.1 0-.222-.005-.32 0Zm214.755 0c-1.511.045-2.922.557-4.21 1.598-.972.784-1.64 1.86-2.185 3.037h10.444c.019-.187.054-.416.054-.586 0-.972-.156-1.727-.48-2.238-.733-1.21-1.863-1.795-3.517-1.812zm-139.617.106c-1.41.167-2.721.81-3.944 1.918-1.466 1.33-2.53 3.419-3.144 6.181-.256 1.16-.373 2.152-.373 3.038 0 1.21.232 2.161.693 2.877.122.185.285.379.426.533.758.805 1.817 1.226 3.144 1.226 1.722 0 3.24-.641 4.69-1.972 1.466-1.347 2.513-3.457 3.144-6.288.58-2.591.498-4.527-.32-5.755-.785-1.193-1.931-1.758-3.517-1.758-.27 0-.538-.032-.8 0m96.293 9.325c-1.45.392-3.074.723-5.223 1.013-1.603.238-2.745.49-3.41.746a3.8 3.8 0 0 0-1.44 1.012c-.374.426-.626.874-.745 1.386a4 4 0 0 0-.053.586v.053c.001.04-.006.12 0 .16.01.077.032.194.053.266.008.024.044.084.053.107.018.046.03.116.054.16.023.043.077.118.106.16.045.06.105.155.16.212.426.478 1.277.693 2.504.693 1.348 0 2.644-.255 3.837-.852a7.47 7.47 0 0 0 2.825-2.452c.511-.716.92-1.818 1.278-3.25ZM44.567 200.61 187.583 52.947h23.355l-34.531 147.662h-19.21l9.805-42.506h-59.955L66.304 200.61zm77.05-57.715h49.035l9.047-37.066q5.477-22.059 10.544-36.765-10.125 12.691-26.794 30.116z"/><path fill="none" stroke="#636" stroke-width="8.5265776" d="M527.04 252.431a256 256 0 0 0 2.105 5.294c1.11 2.361 2.394 4.621 3.937 6.731 8.336 11.331 22.296 17.535 40.02 19.08h19.065c6.028-.47 12.345-1.347 18.893-2.628 11.291-2.208 23.261-5.6 35.693-10.133 9.417-3.433 19.094-7.496 28.915-12.218 21.387-10.252 43.481-23.475 65.157-39.432a433 433 0 0 0 20.565-16.118 409 409 0 0 0 17.335-15.26c15.416-14.857 27.055-29.946 33.645-43.195 6.865-13.797 8.235-25.594 2.61-33.025-3.446-4.562-9.215-7.006-16.642-7.581 33.458-25.106 52.956-55.56 45.962-74.76-2.222-6.128-7.11-10.7-14.12-13.228-3.114-1.12-6.619-1.83-10.44-2.153h-10.297c-14.379 1.037-35.287 6.185-53.026 14.878"/></svg>