<svg xmlns="http://www.w3.org/2000/svg" width="120" height="42"><path fill="#aab2ab" d="m3.408.476 113.354.202c1.584 0 3-.235 3 3.16l-.14 37.33H.547V3.7C.547 2.026.71.476 3.407.476"/><path fill="#fff" d="M34.522 19.575c.005 7.53-6.096 13.637-13.626 13.642S7.256 27.121 7.252 19.592v-.017C7.248 12.045 13.35 5.938 20.88 5.934c7.531-.005 13.639 6.096 13.643 13.625Z"/><path d="M31.971 8.47q4.536 4.536 4.536 11.106t-4.458 10.987q-4.73 4.653-11.181 4.653-6.374 0-10.987-4.614T5.267 19.576 9.881 8.47q4.496-4.535 10.987-4.535 6.57 0 11.103 4.535m-20.054 2.034q-3.835 3.872-3.834 9.075t3.794 8.996q3.795 3.794 9.037 3.794t9.114-3.833q3.678-3.558 3.678-8.957 0-5.358-3.737-9.094-3.735-3.735-9.055-3.736-5.32 0-8.997 3.755m6.727 7.55q-.586-1.278-1.756-1.278-2.067 0-2.067 2.783t2.067 2.784q1.366 0 1.951-1.358l1.911 1.018q-1.365 2.428-4.1 2.428-2.107 0-3.376-1.292t-1.269-3.563q0-2.233 1.308-3.544 1.308-1.312 3.26-1.312 2.888 0 4.139 2.275Zm8.99 0q-.587-1.278-1.72-1.278-2.11 0-2.11 2.783t2.11 2.784q1.368 0 1.915-1.358l1.953 1.018q-1.364 2.428-4.092 2.428-2.105 0-3.372-1.292-1.265-1.293-1.266-3.563 0-2.233 1.287-3.544 1.285-1.312 3.273-1.312 2.885 0 4.13 2.275Z"/><path d="M117.753 0H2.247A2.25 2.25 0 0 0 0 2.247v39.245c0 .28.227.508.507.508h118.985c.28 0 .508-.228.508-.508V2.247A2.25 2.25 0 0 0 117.753 0M2.247 1.015h115.506c.68 0 1.232.553 1.232 1.232v27.245H36.428c-3.026 5.47-8.856 9.185-15.547 9.185-6.693 0-12.521-3.711-15.546-9.185h-4.32V2.247c0-.68.552-1.232 1.232-1.232"/><path fill="#fff" d="M86.264 37.732q.12.232.32.376.198.144.466.213.27.07.556.07.194 0 .416-.032.222-.033.417-.126a.9.9 0 0 0 .323-.255.64.64 0 0 0 .13-.413.58.58 0 0 0-.172-.435 1.4 1.4 0 0 0-.45-.279 5 5 0 0 0-.628-.194 17 17 0 0 1-.713-.186 6 6 0 0 1-.723-.227 2.5 2.5 0 0 1-.63-.348 1.6 1.6 0 0 1-.45-.533 1.6 1.6 0 0 1-.17-.775q0-.51.217-.886.219-.375.57-.626.352-.25.797-.371.444-.12.89-.12.519 0 .996.116.476.116.847.376t.59.664q.216.403.217.979h-1.413a1.2 1.2 0 0 0-.124-.492.8.8 0 0 0-.282-.306 1.2 1.2 0 0 0-.402-.158 2.5 2.5 0 0 0-.494-.046 1.7 1.7 0 0 0-.35.037 1 1 0 0 0-.318.13.8.8 0 0 0-.236.232.63.63 0 0 0-.092.352q0 .195.073.316.075.12.293.222.216.102.601.205.384.102 1.006.26.184.037.513.134.33.097.653.31.325.214.561.571t.236.914q0 .456-.177.845-.176.39-.524.672-.348.284-.862.441a4 4 0 0 1-1.191.158q-.548 0-1.063-.135a2.7 2.7 0 0 1-.91-.423 2.1 2.1 0 0 1-.625-.734q-.232-.447-.223-1.058h1.413q0 .333.12.565m8.207-4.985 2.477 6.622h-1.513l-.5-1.475h-2.478l-.52 1.475h-1.465l2.505-6.622Zm.083 4.06-.835-2.427H93.7l-.864 2.427ZM59.997 32.747q.473 0 .863.084t.67.274.432.505.153.778q0 .501-.228.834-.227.334-.673.547.614.177.917.617.303.441.302 1.063 0 .501-.195.867a1.7 1.7 0 0 1-.525.599q-.33.231-.753.343a3.4 3.4 0 0 1-.87.111h-3.215v-6.622Zm-.187 2.679q.39 0 .642-.185.25-.186.25-.601a.8.8 0 0 0-.083-.38.6.6 0 0 0-.224-.231 1 1 0 0 0-.32-.116 2 2 0 0 0-.376-.032h-1.365v1.545Zm.086 2.81q.213 0 .408-.042a1 1 0 0 0 .345-.139.7.7 0 0 0 .236-.264.9.9 0 0 0 .089-.427q0-.51-.288-.727-.29-.218-.762-.218h-1.59v1.817Zm2.794-5.489h1.634l1.55 2.616 1.542-2.616h1.624l-2.459 4.08v2.542h-1.46v-2.578ZM102.403 14.98c.004 5.846-4.731 10.588-10.577 10.592s-10.588-4.73-10.593-10.576v-.015C81.229 9.135 85.965 4.394 91.81 4.389c5.846-.004 10.59 4.731 10.593 10.576Z"/><path d="M91.742 3.386q-4.817 0-8.156 3.362-3.425 3.479-3.425 8.233t3.425 8.174 8.156 3.42q4.789 0 8.303-3.449 3.308-3.275 3.308-8.145t-3.367-8.233-8.244-3.362m.03 2.087q3.947 0 6.705 2.783 2.786 2.754 2.786 6.725 0 4-2.728 6.638-2.874 2.84-6.764 2.84t-6.705-2.81q-2.815-2.813-2.815-6.668t2.844-6.725q2.729-2.783 6.676-2.783"/><path d="M86.603 13.344c.461-2.917 2.516-4.477 5.09-4.477 3.702 0 5.958 2.686 5.958 6.268 0 3.495-2.4 6.21-6.016 6.21-2.488 0-4.714-1.53-5.12-4.534h2.921c.088 1.56 1.1 2.108 2.546 2.108 1.648 0 2.72-1.53 2.72-3.87 0-2.455-.927-3.755-2.663-3.755-1.272 0-2.37.462-2.603 2.05l.85-.004-2.3 2.299-2.299-2.3Z"/><path fill="#fff" d="M74.099 15.217c0 5.93-4.808 10.738-10.74 10.738-5.93 0-10.739-4.808-10.739-10.738S57.428 4.479 63.36 4.479c5.93 0 10.739 4.808 10.739 10.738"/><path d="M66.468 12.11a.75.75 0 0 0-.75-.749h-4.742a.75.75 0 0 0-.75.749v4.743h1.323v5.616h3.595v-5.616h1.324ZM64.97 9.114a1.622 1.622 0 0 1-3.244 0 1.622 1.622 0 0 1 3.243 0"/><path fill-rule="evenodd" d="M63.332 3.386q-4.817 0-8.156 3.363-3.425 3.477-3.425 8.231t3.425 8.175 8.156 3.42q4.79 0 8.302-3.45 3.31-3.274 3.31-8.145t-3.369-8.23q-3.367-3.364-8.244-3.363m.03 2.086q3.947 0 6.704 2.784 2.788 2.753 2.788 6.724 0 4-2.73 6.639-2.873 2.84-6.763 2.84t-6.704-2.812q-2.816-2.81-2.816-6.667 0-3.855 2.844-6.724 2.73-2.784 6.676-2.784"/></svg>