<svg width="88" height="31" viewBox="0 0 88 31" xmlns="http://www.w3.org/2000/svg"><defs/><path fill="#140b05" stroke="#fc9505" stroke-miterlimit="100" stroke-width="2" stroke-linecap="square" d="M 1 1 L 87 1 L 87 30 L 1 30 Z"/><g><path fill="#4e2e05" stroke="#fc9505" stroke-width="1.65" stroke-linecap="round" stroke-linejoin="round" d="M 12.2 21.87 C 12.2 21.87 12.2 25.17 15.5 25.17 C 18.8 25.17 18.8 21.87 18.8 21.87"/><path fill="none" stroke="#fc9505" stroke-width="1.65" stroke-linecap="round" stroke-linejoin="round" d="M 22.12 5.33 C 22.12 5.33 18.81 5.33 15.5 11.94 M 8.88 5.33 C 8.88 5.33 12.19 5.33 15.5 11.94"/><path fill="#4e2e05" stroke="#fc9505" stroke-width="1.65" stroke-linecap="round" stroke-linejoin="round" d="M 12.2 11.94 L 12.2 11.94 C 12.2 11.94 12.2 8.64 15.5 8.64 C 18.8 8.64 18.8 11.94 18.8 11.94 C 25.420002 18.56 28.73 25.17 15.5 21.87 C 2.27 25.17 5.58 18.56 12.2 11.94"/><path fill="none" stroke="#fc9505" stroke-width="1.65" stroke-linecap="round" stroke-linejoin="round" d="M 18.8 15.249999 C 18.8 18.55 17.15 20.21 17.15 20.21 M 12.19 15.249999 C 12.19 18.55 13.85 20.21 13.85 20.21"/></g><path fill="#000000" stroke="none" d="M 31 7 L 85 7 L 85 28 L 31 28 Z"/><path fill="#fc9505" stroke="none" d="M 29 5 L 83 5 L 83 26 L 29 26 Z"/><g><path fill="#140b05" stroke="none" d="M 41.8 20.686 L 70.6 20.686 L 70.6 21.742 L 41.8 21.742 Z"/><path fill="#140b05" stroke="none" d="M 43.516003 19.87 L 43.516003 15.418 C 43.516003 14.926001 43.792 14.686001 44.176 14.686001 C 44.571995 14.686001 44.764 14.938001 44.764 15.658001 L 44.764 19.87 L 46.036 19.87 L 46.036 15.418 C 46.036 14.926001 46.312004 14.686001 46.683994 14.686001 C 47.08 14.686001 47.284 14.938001 47.284 15.658001 L 47.284 19.87 L 48.544 19.87 L 48.544 15.478001 C 48.544 14.206002 48.16 13.534 47.260002 13.534 C 46.503998 13.534 46.144 14.002001 45.928 14.566001 L 45.868 14.566001 C 45.76 13.918 45.388 13.534 44.764 13.534 C 44.104004 13.534 43.78 13.978001 43.587997 14.530001 L 43.516003 14.530001 L 43.516003 13.678002 L 42.244 13.678002 L 42.244 19.87 Z M 52.600002 20.014 C 54.472004 20.014 55.624004 18.766 55.624004 16.774 C 55.624004 14.7820015 54.472004 13.534 52.600002 13.534 C 50.728004 13.534 49.576004 14.7820015 49.576004 16.774 C 49.576004 18.766 50.728004 20.014 52.600002 20.014 Z M 52.600002 18.838001 C 51.724003 18.838001 51.171997 18.286001 51.171997 17.254002 L 51.171997 16.294 C 51.171997 15.262001 51.724003 14.710001 52.600002 14.710001 C 53.476006 14.710001 54.028 15.262001 54.028 16.294 L 54.028 17.254002 C 54.028 18.286001 53.476006 18.838001 52.600002 18.838001 Z M 62.548 19.87 L 62.548 18.658 L 60.028 18.658 L 60.028 14.890002 L 62.548 14.890002 L 62.548 13.678002 L 60.028 13.678002 L 60.028 11.494 L 58.600002 11.494 L 58.600002 12.994002 C 58.600002 13.51 58.408 13.678002 57.916 13.678002 L 56.692005 13.678002 L 56.692005 14.890002 L 58.492 14.890002 L 58.492 18.19 C 58.492 19.174002 59.044003 19.87 60.22 19.87 Z M 64.3 19.87 L 65.836 19.87 L 65.836 15.730001 C 65.836 15.070001 66.436005 14.746 67.06 14.746 C 67.828 14.746 68.224 15.202001 68.224 16.09 L 68.224 19.87 L 69.76 19.87 L 69.76 15.874001 C 69.76 14.374001 68.92 13.534 67.708 13.534 C 66.7 13.534 66.172 14.0980015 65.896 14.77 L 65.836 14.77 L 65.836 10.990001 L 64.3 10.990001 Z"/></g></svg>
