<svg xmlns="http://www.w3.org/2000/svg" width="368" height="129" viewBox="0 0 368 130"><path fill="#fff" d="M4 4h122v122H4Z"/><path fill="#ffe19e" d="M126 4h238v122H126Z"/><path fill="#dadada" d="M0 0h4v130H0Z"/><path fill="#dadada" d="M0 0h368v4H0Z"/><path fill="#727271" d="M364 4h4v126h-4Z"/><path fill="#727271" d="M4 126h364v4H4Z"/><path fill="#727271" fill-opacity=".497" d="M360 4h4v118h-4Z"/><path fill="#727271" fill-opacity=".498" d="M8 122h356v4H8Z"/><path fill="#005a9c" d="m14.5 38.265 15.932 53.771h.662l9.957-33.322 9.96 33.322h.663l11.939-40.291c2.28-7.695 1.149-6.843 7.952-6.843h5.612L66.084 64.157h4.453c2.878 0 5.907 1.038 7.502 3.117.223.289.424.603.61.93q.064.115.125.232c.175.332.339.676.48 1.045q.84 2.2.842 5.295 0 4.382-1.926 7.502a9 9 0 0 1-1.11 1.456c-.25.263-.51.491-.777.692l-.069.05a5 5 0 0 1-.839.502 4.5 4.5 0 0 1-1.035.323 4.6 4.6 0 0 1-.881.095q-.02-.001-.04-.003c-.013 0-.025-.004-.039-.004l-.02-.003-.045-.003a7.4 7.4 0 0 1-1.162-.105h-.007c-.102-.018-.196-.059-.297-.082l-.062-.016q-.038-.01-.075-.023c-.255-.059-.512-.116-.754-.209a6.5 6.5 0 0 1-1.1-.545 7 7 0 0 1-1.015-.763c-.693-.753-1.214-1.608-1.767-2.442H60.3c.46 1.365 1.03 2.6 1.688 3.734l-.02.036c.072.129.167.249.245.376.468.76.972 1.481 1.535 2.131q.75.869 1.612 1.607.43.367.879.688l.003.004q.445.319.91.594c.193.114.391.211.588.313q.04.022.079.043c.095.052.19.107.287.153l.01.004q.48.228.98.41.006.005.012.007h.004q.495.181 1.008.317l.02.007h.003q.512.134 1.042.225l.026.003c.315.054.635.09.96.121l.022.003q.018.005.036.007l.056.006h.003l.026.004h.004c.195.016.398.015.597.023q.061.003.124.006l.078.003q.15.01.304.014h.04c.297 0 .58-.029.87-.046v-.017c.313-.022.633-.025.938-.065l.127-.02a12 12 0 0 0 1.665-.352c2.511-.71 4.669-2.19 6.454-4.479Q87.4 82.079 87.4 74.777q-.001-5.907-2.657-10.287a13.35 13.35 0 0 0-5.488-5.083c-.072-.036-.15-.066-.222-.101-.3-.146-.6-.29-.914-.418q-.585-.24-1.208-.44c3.886-6.73 7.84-13.419 11.664-20.183H67.61c-6.058 0-7.276 1.033-9.38 8.185l-7.218 24.543-9.627-32.728h-6.966l1.593 5.347c1.327 4.454 1.209 6.64-.036 10.855l-4.88 16.526-9.625-32.728Z"/><path d="m114.412 37.963.565 3.433c.527 3.204-.01 4.53-1.434 7.256l-1.998 3.823s-1.534-3.244-4.083-5.04c-2.148-1.512-3.547-1.841-5.735-1.39-2.81.58-5.996 3.94-7.386 8.082-1.664 4.955-1.68 7.354-1.739 9.557-.093 3.532.463 5.62.463 5.62s-2.425-4.49-2.403-11.066c.015-4.693.754-8.949 2.925-13.15 1.91-3.691 4.75-5.908 7.27-6.168 2.606-.27 4.666.986 6.257 2.346 1.67 1.428 3.36 4.547 3.36 4.547ZM114.905 76.805s-1.767 3.157-2.867 4.374-3.07 3.36-5.502 4.431c-2.434 1.072-3.708 1.274-6.111 1.043-2.402-.23-4.635-1.621-5.417-2.201-.783-.58-2.782-2.288-3.91-3.881-1.13-1.595-2.897-4.779-2.897-4.779s.985 3.194 1.602 4.548c.354.78 1.444 3.166 2.992 5.242 1.44 1.937 4.243 5.272 8.5 6.024 4.258.754 7.183-1.158 7.907-1.623.723-.463 2.394-1.555 3.36-2.588 1.008-1.078 1.543-1.851 2.215-3.21.488-.988.91-3.306.637-4.73Z"/><path fill="#1d1d1b" d="m231.541 31.417-7.765 30.464h-7.339l-4.138-16q-.128-.47-.342-1.408-.17-.939-.426-2.048-.214-1.11-.384-2.09-.17-1.025-.256-1.58-.043.555-.256 1.58-.17.98-.384 2.09-.214 1.067-.427 2.048-.213.939-.341 1.45l-4.096 15.958h-7.339l-7.765-30.464h6.357l3.883 16.64q.256.981.554 2.475.3 1.493.555 2.986t.384 2.518q.128-1.067.384-2.518.256-1.493.512-2.858.299-1.408.512-2.176l4.437-17.067h6.102l4.437 17.067q.213.725.47 2.133.298 1.408.554 2.901.256 1.494.384 2.518.128-1.067.384-2.518.256-1.493.555-2.986.341-1.494.554-2.475l3.883-16.64ZM252.32 61.88l-2.219-7.252h-11.093l-2.219 7.253h-6.954l10.752-30.592h7.893l10.795 30.592Zm-5.973-19.754q-.214-.725-.555-1.834-.341-1.11-.683-2.262-.34-1.152-.554-2.005-.214.853-.598 2.133-.34 1.238-.682 2.39-.299 1.109-.47 1.578l-2.175 7.083h7.936ZM274.507 61.88H260.64v-3.668l3.712-1.707V36.793l-3.712-1.707v-3.67h13.867v3.67l-3.712 1.707v19.712l3.712 1.707ZM277.152 53.049v-5.205h11.179v5.205Z"/><path fill="#901a16" d="m312.096 61.88-2.218-7.252h-11.094l-2.218 7.253h-6.955l10.752-30.592h7.893l10.795 30.592Zm-5.973-19.754q-.213-.725-.555-1.834-.341-1.11-.682-2.262-.342-1.152-.555-2.005-.213.853-.597 2.133-.342 1.238-.683 2.39-.299 1.109-.47 1.578l-2.175 7.083h7.936ZM342.936 61.88l-2.218-7.252h-11.094l-2.218 7.253h-6.955l10.752-30.592h7.893l10.795 30.592Zm-5.973-19.754q-.213-.725-.555-1.834-.341-1.11-.682-2.262-.342-1.152-.555-2.005-.213.853-.597 2.133-.342 1.238-.683 2.39-.299 1.109-.47 1.578l-2.175 7.083h7.936Z"/><g fill="#1d1d1b"><path d="m193.005 79.692-7.765 30.464h-7.339l-4.138-16q-.128-.469-.342-1.408-.17-.938-.426-2.048-.214-1.109-.384-2.09-.17-1.024-.256-1.579-.043.555-.256 1.579-.17.981-.384 2.09-.214 1.067-.427 2.048-.213.94-.341 1.451l-4.096 15.957h-7.339l-7.765-30.464h6.357l3.883 16.64q.256.982.554 2.475.3 1.493.555 2.987t.384 2.517q.128-1.067.384-2.517.256-1.494.512-2.859.299-1.408.512-2.176l4.437-17.067h6.102l4.437 17.067q.213.725.47 2.133.298 1.408.554 2.902.256 1.493.384 2.517.128-1.067.384-2.517.256-1.494.555-2.987.341-1.493.554-2.475l3.883-16.64ZM209.347 84.642q-3.712 0-5.675 2.773t-1.963 7.595q0 4.864 1.792 7.552 1.835 2.645 5.846 2.645 1.877 0 3.712-.427 1.877-.426 4.053-1.194v5.418q-2.005.811-3.968 1.195t-4.394.384q-4.694 0-7.766-1.92-3.03-1.963-4.48-5.461-1.45-3.542-1.45-8.235 0-4.608 1.663-8.15 1.664-3.54 4.822-5.546 3.2-2.005 7.808-2.005 2.261 0 4.522.597 2.304.555 4.395 1.536l-2.09 5.248q-1.707-.81-3.457-1.408-1.706-.597-3.37-.597M242.243 110.156l-2.219-7.253h-11.093l-2.219 7.253h-6.955l10.752-30.592h7.894l10.794 30.592Zm-5.974-19.754q-.213-.726-.554-1.835-.342-1.11-.683-2.261t-.555-2.006q-.213.854-.597 2.134-.341 1.237-.683 2.39-.298 1.108-.469 1.578l-2.176 7.082h7.936ZM263.747 93.047h12.075v15.787q-2.39.81-4.993 1.28-2.56.47-5.845.47-6.826 0-10.496-4.012-3.67-4.01-3.67-11.69 0-4.779 1.835-8.278 1.878-3.498 5.42-5.418 3.54-1.92 8.66-1.92 2.433 0 4.78.512 2.346.512 4.266 1.365l-2.133 5.163q-1.409-.726-3.2-1.195-1.793-.47-3.755-.47-2.816 0-4.907 1.28-2.048 1.28-3.2 3.627-1.11 2.304-1.11 5.462 0 2.986.812 5.29.81 2.304 2.56 3.627 1.749 1.28 4.565 1.28 1.365 0 2.304-.128.981-.128 1.792-.299v-6.357h-5.76ZM313.326 110.156h-21.291v-4.48l7.637-7.722q2.304-2.39 3.712-3.968 1.408-1.622 2.048-2.902.64-1.322.64-2.816 0-1.834-1.024-2.73-.981-.896-2.688-.896-1.75 0-3.413.81-1.664.811-3.499 2.304l-3.498-4.138q1.322-1.152 2.773-2.134 1.493-.98 3.413-1.578 1.963-.64 4.694-.64 2.986 0 5.12 1.11 2.176 1.066 3.328 2.943 1.194 1.835 1.194 4.181 0 2.518-1.024 4.608-.981 2.091-2.901 4.14-1.877 2.047-4.565 4.522l-3.926 3.67v.298h13.27ZM317.166 107.17q0-1.963 1.066-2.73 1.067-.812 2.603-.812 1.493 0 2.56.811 1.067.768 1.067 2.73 0 1.878-1.067 2.731-1.067.811-2.56.811-1.536 0-2.603-.81-1.066-.854-1.066-2.731M349.891 110.156h-21.29v-4.48l7.637-7.722q2.304-2.39 3.712-3.968 1.408-1.622 2.048-2.902.64-1.322.64-2.816 0-1.834-1.024-2.73-.982-.896-2.688-.896-1.75 0-3.414.81-1.664.811-3.498 2.304l-3.5-4.138q1.324-1.152 2.774-2.134 1.494-.98 3.414-1.578 1.962-.64 4.693-.64 2.987 0 5.12 1.11 2.176 1.066 3.328 2.943 1.195 1.835 1.195 4.181 0 2.518-1.024 4.608-.982 2.091-2.902 4.14-1.877 2.047-4.565 4.522l-3.925 3.67v.298h13.269Z"/></g></svg>